<svg width="512.000000pt" height="512.000000pt" viewBox="0 0 512.000000 512.000000" xmlns="http://www.w3.org/2000/svg">
  <g transform="translate(0.000000,512.000000) scale(0.100000,-0.100000)" fill="#fefefe" stroke="none">
    <path d="M2 2563 l-2 -2563 721 0 721 0 -7 23 c-4 12 -10 42 -12 65 l-5 44
211 212 211 212 0 19 0 19 -52 53 -52 53 84 85 c47 47 89 85 95 85 6 0 33 -22
60 -50 27 -27 56 -50 65 -50 8 0 119 103 245 230 l230 230 -13 20 c-6 11 -12
26 -12 33 0 18 152 167 170 167 9 0 53 -38 100 -85 l84 -85 -32 -33 c-18 -18
-32 -37 -32 -42 0 -6 239 -249 531 -541 l531 -532 -5 -43 c-2 -24 -8 -54 -12
-66 l-7 -23 651 0 651 0 0 2560 0 2560 -1930 0 c-1062 0 -1930 -3 -1930 -7 0
-4 88 -96 195 -203 l195 -196 0 -26 0 -26 -25 -30 c-14 -17 -25 -34 -25 -38 0
-16 705 -714 721 -714 8 0 30 16 49 35 19 19 41 35 49 35 8 0 140 -125 293
-277 l278 -278 0 -25 0 -25 -140 -140 c-77 -77 -140 -147 -140 -155 0 -8 105
-121 234 -249 l235 -235 6 -23 5 -23 -14 -28 c-8 -15 -89 -101 -180 -192 -91
-91 -166 -169 -166 -174 0 -6 99 -109 219 -231 l219 -220 11 -43 12 -42 -7
-35 c-3 -19 -20 -53 -36 -76 l-29 -41 -42 -19 c-51 -23 -96 -24 -145 -3 l-37
15 -210 210 c-116 115 -217 209 -226 209 -16 0 -129 -109 -129 -125 0 -5 34
-43 75 -86 l75 -77 0 -23 0 -24 -278 -277 c-152 -153 -284 -278 -291 -278 -8
0 -57 43 -110 95 -54 52 -101 95 -107 95 -5 0 -80 -71 -167 -158 l-157 -157 0
-20 0 -21 75 -74 c41 -41 75 -79 75 -85 0 -6 -77 -87 -170 -180 l-170 -169
-63 62 c-34 34 -69 62 -78 62 -8 0 -24 -7 -35 -15 -10 -8 -35 -15 -54 -15
l-34 0 -288 287 -287 287 -6 28 -6 27 17 31 c10 16 33 37 51 45 l32 16 33 -15
33 -14 185 -186 c102 -102 189 -186 195 -186 10 0 95 80 95 90 0 3 -133 138
-295 300 -162 162 -303 296 -313 298 l-17 3 -80 -81 -80 -80 -19 0 -19 0 -119
117 -118 117 0 341 0 341 65 64 c36 35 65 69 65 74 0 6 -12 22 -27 38 l-26 27
83 86 c46 47 88 85 94 85 6 0 51 -40 99 -88 l88 -88 -26 -24 c-14 -13 -25 -30
-25 -39 0 -17 168 -191 185 -191 16 0 175 164 175 180 0 16 -279 300 -295 300
-5 0 -22 -12 -37 -27 l-29 -27 -169 169 c-94 93 -170 174 -170 180 0 13 332
345 345 345 6 0 37 -27 70 -60 33 -33 66 -60 75 -60 17 0 390 369 390 385 0
15 -226 238 -237 234 -16 -6 -123 -126 -123 -137 0 -5 7 -15 16 -22 8 -8 20
-22 25 -32 l10 -19 -82 -85 c-45 -46 -88 -84 -94 -84 -6 0 -22 11 -35 25 -13
14 -28 25 -34 25 -6 0 -93 -82 -193 -182 l-183 -183 0 511 0 512 101 96 101
97 -6 35 c-9 47 9 108 44 148 17 18 30 38 30 42 0 5 -61 70 -135 144 l-135
134 -3 196 c-1 107 -3 -958 -5 -2367z m729 -2072 l29 -45 0 -40 0 -39 -24 -41
-24 -41 -40 -23 -40 -22 -35 0 c-20 0 -48 5 -64 11 l-28 10 -247 247 -248 246
0 236 0 235 346 -345 c190 -190 359 -365 375 -389z" />
    <path d="M510 5112 c0 -4 25 -32 55 -62 30 -30 55 -59 55 -66 0 -6 -9 -19 -20
-29 -11 -10 -20 -26 -20 -35 0 -9 15 -31 34 -49 l35 -33 32 11 c47 16 95 13
137 -8 l37 -20 600 -600 c330 -331 605 -601 610 -601 13 0 85 72 85 85 0 6
-316 326 -703 713 l-702 702 -118 0 c-64 0 -117 -4 -117 -8z" />
    <path d="M1380 3582 l0 -17 273 -273 c149 -149 279 -272 287 -272 20 0 110 91
110 111 0 20 -98 113 -136 128 l-30 12 -159 159 c-88 88 -167 160 -176 160 -8
0 -26 -11 -39 -25 -13 -14 -27 -25 -31 -25 -5 0 -24 14 -42 30 -19 17 -40 30
-46 30 -6 0 -11 -8 -11 -18z" />
    <path d="M1507 2272 c-53 -53 -97 -102 -97 -107 0 -16 294 -305 310 -305 20 0
200 181 200 200 0 17 -289 310 -305 310 -6 0 -54 -44 -108 -98z" />
  </g>
  <g transform="translate(0.000000,512.000000) scale(0.100000,-0.100000)" fill="#f0ebd2" stroke="none">
    <path d="M0 4922 l0 -197 134 -134 135 -135 -29 -33 c-16 -18 -34 -51 -40 -74
l-12 -42 7 -48 7 -49 14 0 14 0 0 -20 c0 -11 4 -20 8 -20 9 0 445 -435 450
-448 5 -15 962 -967 975 -970 6 -1 73 58 147 133 l135 135 -279 279 c-153 153
-276 283 -273 288 4 6 -5 21 -18 33 -14 13 -25 31 -25 40 0 9 11 27 25 40 14
13 25 28 25 35 0 6 -191 201 -425 435 -234 233 -426 428 -426 434 -1 6 -1 19
0 29 1 9 -3 17 -8 17 -16 0 -13 37 3 43 7 3 16 24 20 46 3 23 10 41 15 41 5 0
11 9 14 21 3 11 15 23 26 26 l21 5 0 17 c0 10 -14 30 -30 46 l-30 29 -63 -62
c-34 -34 -67 -62 -72 -62 -6 0 -47 37 -93 83 l-82 82 0 21 0 20 50 49 c28 27
50 53 50 57 0 4 -83 8 -185 8 l-185 0 0 -198z" />
    <path d="M1425 4420 c385 -385 705 -700 710 -700 6 0 49 38 95 85 l85 85 -353
353 c-194 194 -350 356 -346 360 10 10 -5 9 -44 -2 l-32 -10 0 10 c0 5 -6 9
-13 9 -6 0 -127 115 -267 255 l-255 255 -140 0 -140 0 700 -700z" />
    <path d="M1023 2503 l-42 -4 -372 -380 c-204 -208 -377 -379 -384 -379 -19 0
-26 -40 -13 -82 l11 -37 106 -105 c58 -57 113 -113 122 -123 9 -10 178 -179
375 -375 l359 -358 17 0 c9 0 18 -4 20 -9 2 -5 15 -13 31 -16 l27 -7 0 11 c0
6 5 11 11 11 5 0 183 174 395 387 l385 386 -5 14 c-3 7 -1 13 4 13 14 0 12 27
-2 33 l-13 5 13 1 c16 1 16 31 -1 31 -11 0 -337 319 -337 330 0 8 -654 660
-660 658 -3 -1 -24 -3 -47 -5z" />
    <path d="M2690 1985 l-135 -135 210 -210 210 -210 41 -20 40 -20 45 0 c24 0
63 9 86 19 l42 19 30 42 30 42 6 42 7 42 -12 45 -12 44 -216 218 c-119 119
-221 217 -227 217 -5 0 -71 -61 -145 -135z" />
  </g>
  <g transform="translate(0.000000,512.000000) scale(0.100000,-0.100000)" fill="#f43a61" stroke="none">
    <path d="M311 5066 l-53 -54 0 -27 0 -27 78 -79 79 -79 25 0 25 0 83 83 82 82
0 21 0 20 -58 57 -58 57 -75 0 -75 0 -53 -54z" />
    <path d="M1000 5112 c0 -4 114 -121 254 -261 l253 -253 46 -5 46 -5 31 30 30
30 0 38 0 38 -197 198 -197 198 -133 0 c-73 0 -133 -3 -133 -8z" />
    <path d="M1391 3736 c-28 -30 -51 -62 -51 -71 0 -22 98 -124 127 -131 l23 -6
60 52 60 52 0 27 0 27 -53 52 -53 52 -30 0 -31 0 -52 -54z" />
    <path d="M470 3475 l-94 -95 29 -30 29 -30 21 0 21 0 82 84 c45 46 82 90 82
98 0 23 -39 68 -58 68 -10 0 -60 -43 -112 -95z" />
    <path d="M737 3282 c-103 -103 -187 -194 -187 -202 0 -9 43 -58 95 -110 52
-52 95 -99 95 -105 0 -6 -61 -71 -135 -145 -74 -74 -135 -142 -135 -150 0 -17
279 -300 295 -300 6 0 62 52 125 115 l115 115 31 0 30 0 164 -165 c90 -91 171
-165 180 -165 8 0 58 43 110 95 l95 96 340 -346 340 -346 45 1 44 0 394 393
c216 215 400 405 409 421 l15 28 -7 32 -6 31 -397 403 -397 402 -50 0 -50 0
-312 -312 -313 -313 -358 358 c-196 196 -364 357 -372 357 -8 0 -100 -84 -203
-188z" />
    <path d="M162 2446 c-45 -46 -82 -90 -82 -98 0 -8 14 -27 30 -43 l30 -29 53
52 53 52 20 0 20 0 49 -50 c27 -27 54 -50 60 -50 13 0 65 52 65 65 0 5 -39 49
-87 97 l-88 88 -21 0 -20 0 -82 -84z" />
    <path d="M2568 1393 c-44 -43 -84 -86 -89 -95 l-10 -18 12 -22 c7 -13 44 -56
82 -95 l70 -73 28 0 27 0 81 88 c44 48 81 94 81 103 0 18 -171 189 -190 189
-7 0 -48 -35 -92 -77z" />
    <path d="M0 992 l0 -248 248 -246 247 -247 28 -10 c16 -6 49 -11 74 -11 l45 0
40 22 40 23 24 41 24 41 0 47 c0 26 -7 61 -16 79 -16 31 -731 757 -746 757 -5
0 -8 -111 -8 -248z" />
    <path d="M1819 803 c-49 -48 -89 -93 -89 -101 0 -7 37 -54 82 -103 l82 -89 24
0 24 0 79 77 79 76 0 31 0 31 -89 83 c-49 45 -93 82 -97 82 -3 0 -46 -39 -95
-87z" />
  </g>
  <g transform="translate(0.000000,512.000000) scale(0.100000,-0.100000)" fill="#00b7c5" stroke="none">
    <path d="M662 4857 c-18 -5 -48 -27 -67 -48 l-34 -38 -11 -43 -12 -43 6 -44
c3 -24 15 -58 26 -75 10 -17 201 -213 424 -436 l405 -404 29 27 c15 15 37 27
48 27 l20 0 52 -53 c29 -29 52 -59 52 -67 0 -8 -12 -27 -27 -42 l-27 -29 159
-160 160 -161 40 -19 c22 -10 62 -41 90 -68 27 -28 54 -51 60 -51 6 0 64 54
130 120 l120 120 39 0 40 0 163 -162 163 -163 147 147 146 146 0 32 0 32 -279
279 -280 279 -27 0 -28 0 -163 -164 -164 -164 -598 600 -599 599 -37 20 -37
19 -48 -1 c-26 -1 -63 -6 -81 -12z" />
    <path d="M95 4139 l-95 -92 0 -531 0 -531 350 351 350 350 0 19 0 19 -247 251
c-137 137 -251 251 -255 253 -4 2 -50 -38 -103 -89z" />
    <path d="M117 2272 l-117 -117 0 -351 0 -350 118 -117 119 -117 29 0 29 0 83
83 c45 45 82 87 82 92 0 5 -55 65 -122 132 l-122 122 0 33 1 33 187 185 c102
101 185 188 184 192 -2 4 -68 73 -148 153 l-144 145 -31 0 -30 0 -118 -118z" />
    <path d="M1815 1960 l-100 -100 170 -172 c94 -95 173 -174 178 -176 4 -2 7
-20 7 -40 l0 -37 -142 -143 -143 -143 101 -99 101 -100 24 0 24 0 277 278 278
277 0 34 0 34 -79 80 -79 81 -32 -27 -32 -27 -31 0 -31 0 -191 190 c-105 105
-193 190 -196 190 -2 0 -49 -45 -104 -100z" />
    <path d="M484 1094 c-17 -8 -39 -30 -49 -48 l-18 -33 7 -34 6 -35 288 -287
288 -287 42 0 43 0 24 16 c14 9 25 21 25 28 0 6 -45 56 -100 111 -55 55 -100
103 -100 108 0 4 10 21 22 38 l22 30 -189 190 -190 191 -32 14 c-40 18 -50 17
-89 -2z" />
  </g>
  <g transform="translate(0.000000,512.000000) scale(0.100000,-0.100000)" fill="#c1ecf0" stroke="none">
    <path d="M673 4860 c-34 -14 -28 -21 7 -9 17 6 30 13 30 15 0 6 -12 4 -37 -6z" />
    <path d="M778 4863 c7 -3 16 -2 19 1 4 3 -2 6 -13 5 l-19 -1 13 -5z" />
    <path d="M840 4836 c0 -2 7 -7 16 -10 l15 -6 -6 10 c-6 10 -25 14 -25 6z" />
    <path d="M175 4214 l-30 -26 33 18 c17 10 32 22 32 26 0 11 -1 10 -35 -18z" />
    <path d="M2385 3950 l-6 -10 15 6 c18 7 21 14 7 14 -6 0 -13 -4 -16 -10z" />
    <path d="M2421 3956 c2 -2 15 -9 29 -15 l25 -12 -19 15 c-11 9 -24 16 -30 16
-5 0 -7 -2 -5 -4z" />
    <path d="M625 3620 l-49 -55 54 52 c30 29 52 54 50 56 -3 1 -27 -22 -55 -53z" />
    <path d="M2989 3397 l11 -28 -14 -27 c-8 -15 -75 -87 -149 -160 -73 -72 -132
-133 -130 -135 1 -2 69 63 150 144 l146 148 0 31 c0 17 -5 36 -12 43 l-12 12
10 -28z" />
    <path d="M185 3183 c-104 -106 -187 -193 -185 -193 3 0 93 88 200 195 107 107
190 194 185 193 -6 0 -95 -88 -200 -195z" />
    <path d="M1867 3269 c7 -7 15 -10 18 -7 3 3 -2 9 -12 12 l-18 7 12 -12z" />
    <path d="M1907 3249 c7 -7 15 -10 18 -7 3 3 -2 9 -12 12 l-18 7 12 -12z" />
    <path d="M65 2218 l-70 -73 73 70 c39 38 72 71 72 72 0 8 -11 -2 -75 -69z" />
    <path d="M2500 1655 c41 -44 77 -79 80 -77 2 1 -32 37 -75 80 l-79 77 74 -80z" />
    <path d="M2310 1237 l-265 -268 -30 -8 -30 -9 25 -1 24 -1 275 275 c152 150
273 275 271 277 -3 2 -124 -118 -270 -265z" />
    <path d="M112 1345 c65 -65 119 -117 120 -115 2 3 -51 57 -117 120 l-120 115
117 -120z" />
    <path d="M290 1230 l-15 -10 12 0 c6 0 15 5 18 10 8 12 4 12 -15 0z" />
    <path d="M2269 1005 l-235 -235 28 -27 c15 -15 28 -36 28 -48 l0 -22 -79 -76
c-43 -42 -85 -77 -92 -77 -7 0 -28 14 -46 32 -18 17 -34 30 -35 27 -2 -2 -99
-101 -215 -220 l-213 -215 0 -47 c0 -25 5 -58 12 -72 l11 -25 1197 0 1197 0
11 25 c7 14 12 47 12 73 l0 47 -532 532 -533 533 -55 -55 c-31 -30 -62 -55
-70 -55 -8 0 -46 31 -85 70 l-70 70 -236 -235z" />
    <path d="M484 1094 c-30 -15 -64 -60 -64 -86 1 -7 7 1 14 17 17 39 43 61 86
73 l35 10 -20 1 c-11 0 -34 -6 -51 -15z" />
    <path d="M580 1086 c0 -2 7 -7 16 -10 l15 -6 -6 10 c-6 10 -25 14 -25 6z" />
    <path d="M425 968 c4 -13 11 -27 16 -33 5 -5 4 5 -2 23 -12 36 -24 44 -14 10z" />
    <path d="M1130 412 c0 -5 -11 -15 -25 -22 -14 -7 -23 -15 -21 -17 2 -2 17 4
35 14 30 18 40 33 21 33 -5 0 -10 -4 -10 -8z" />
  </g>
  <g transform="translate(0.000000,512.000000) scale(0.100000,-0.100000)" fill="#1a4266" stroke="none">
    <path d="M217 3052 l-167 -167 0 -20 0 -20 168 -168 c92 -92 174 -167 183
-167 15 0 334 313 352 345 l9 16 -101 103 c-56 56 -101 105 -101 108 0 3 -30
36 -67 72 l-68 66 -20 0 -20 0 -168 -168z" />
    <path d="M1370 735 c-47 -47 -92 -88 -102 -91 -26 -8 -67 18 -133 85 -33 34
-65 61 -71 61 -14 0 -144 -139 -144 -154 0 -16 343 -356 359 -356 8 0 90 75
183 167 l168 167 0 21 0 20 -81 83 c-45 45 -84 82 -88 82 -4 0 -45 -38 -91
-85z" />
  </g>
  <g transform="translate(0.000000,512.000000) scale(0.100000,-0.100000)" fill="#f7ede4" stroke="none">
    <path d="M1435 4412 c390 -391 711 -712 712 -712 2 0 3 7 3 15 0 8 -6 15 -12
15 -7 0 -328 314 -713 697 l-700 698 710 -713z" />
    <path d="M616 5007 c3 -10 9 -15 12 -12 3 3 0 11 -7 18 l-12 12 7 -18z" />
    <path d="M595 4950 c-16 -16 -26 -33 -22 -36 6 -6 56 45 57 59 0 12 -5 9 -35
-23z" />
    <path d="M795 4860 c3 -5 8 -10 11 -10 3 0 2 5 -1 10 -3 6 -8 10 -11 10 -3 0
-2 -4 1 -10z" />
    <path d="M130 4598 c74 -76 136 -138 137 -138 2 0 3 1 3 3 0 1 -62 63 -137
137 l-138 135 135 -137z" />
    <path d="M229 4413 l-14 -18 18 14 c9 7 17 15 17 17 0 8 -8 3 -21 -13z" />
    <path d="M200 4360 c0 -7 3 -10 7 -7 3 4 3 10 0 14 -4 3 -7 0 -7 -7z" />
    <path d="M193 4295 l0 -40 4 23 c2 12 2 30 0 40 -3 9 -5 -1 -4 -23z" />
    <path d="M201 4234 l1 -19 5 13 c3 7 2 16 -1 19 -3 4 -6 -2 -5 -13z" />
    <path d="M814 3591 l116 -116 -193 -193 c-107 -106 -191 -195 -187 -197 3 -2
94 84 201 190 l195 195 -113 112 c-61 61 -110 115 -108 118 2 4 -3 7 -11 7
l-15 0 115 -116z" />
    <path d="M1415 3570 c16 -16 33 -30 39 -30 5 0 -3 14 -19 30 -16 17 -33 30
-39 30 -5 0 3 -13 19 -30z" />
    <path d="M580 3573 c0 -5 11 -20 25 -33 14 -13 25 -19 25 -13 0 5 -11 20 -25
33 -14 13 -25 19 -25 13z" />
    <path d="M1490 3540 l-15 -10 12 0 c6 0 15 5 18 10 8 12 4 12 -15 0z" />
    <path d="M540 3405 c-47 -47 -80 -85 -75 -85 14 0 170 158 164 164 -3 3 -43
-33 -89 -79z" />
    <path d="M410 3216 c0 -2 7 -7 16 -10 l15 -6 -6 10 c-6 10 -25 14 -25 6z" />
    <path d="M1996 3084 c-27 -30 -55 -53 -61 -50 -6 2 -12 -2 -12 -10 0 -8 5 -14
11 -14 12 0 126 110 126 122 0 17 -17 4 -64 -48z" />
    <path d="M3170 2585 c1 -6 7 -21 16 -35 l15 -25 -7 25 c-3 14 -10 29 -15 35
l-9 9 0 -9z" />
    <path d="M165 2450 c-43 -44 -77 -82 -74 -84 3 -3 43 33 89 79 47 47 80 85 75
85 -6 0 -46 -36 -90 -80z" />
    <path d="M377 2519 c7 -7 15 -10 18 -7 3 3 -2 9 -12 12 l-18 7 12 -12z" />
    <path d="M3186 2503 l-7 -18 12 12 c7 7 10 15 7 18 -3 3 -9 -2 -12 -12z" />
    <path d="M3002 2307 c-95 -95 -172 -177 -172 -184 0 -6 8 -14 18 -18 l17 -6
-13 13 -12 12 172 173 c95 95 170 175 167 177 -3 3 -82 -72 -177 -167z" />
    <path d="M445 2345 c0 -13 3 -21 8 -18 4 2 7 10 7 18 0 8 -3 16 -7 18 -5 3 -8
-5 -8 -18z" />
    <path d="M1505 2270 c-54 -54 -97 -102 -94 -104 3 -3 52 42 109 99 58 58 100
105 95 105 -6 0 -55 -45 -110 -100z" />
    <path d="M666 2184 l-90 -94 17 0 c9 0 17 6 17 13 0 8 36 49 80 91 44 43 80
80 80 82 0 13 -25 -9 -104 -92z" />
    <path d="M1700 1866 c0 -7 7 -13 15 -13 8 0 15 4 15 8 0 4 -7 9 -15 13 l-15 5
0 -13z" />
    <path d="M2492 1797 c-34 -34 -62 -67 -62 -72 0 -5 29 20 65 55 l65 65 213
-210 212 -210 -208 210 c-114 116 -205 214 -201 218 4 4 1 7 -7 7 -8 0 -43
-28 -77 -63z" />
    <path d="M3230 1726 c0 -2 8 -10 18 -17 l17 -14 -14 18 c-13 16 -21 21 -21 13z" />
    <path d="M3265 1680 c3 -5 8 -10 11 -10 3 0 2 5 -1 10 -3 6 -8 10 -11 10 -3 0
-2 -4 1 -10z" />
    <path d="M3280 1650 c0 -7 3 -10 7 -7 3 4 3 10 0 14 -4 3 -7 0 -7 -7z" />
    <path d="M3293 1585 l0 -40 4 23 c2 12 2 30 0 40 -3 9 -5 -1 -4 -23z" />
    <path d="M3271 1503 l-11 -28 15 19 c8 11 15 23 15 28 0 15 -7 8 -19 -19z" />
    <path d="M2558 1382 c-48 -49 -88 -93 -88 -99 0 -6 41 32 92 84 l92 94 14 -6
13 -5 -6 10 c-3 6 -11 10 -17 10 -7 0 -51 -40 -100 -88z" />
    <path d="M3229 1443 l-24 -28 28 24 c15 14 27 26 27 28 0 8 -8 1 -31 -24z" />
    <path d="M2995 1420 c3 -5 8 -10 11 -10 3 0 2 5 -1 10 -3 6 -8 10 -11 10 -3 0
-2 -4 1 -10z" />
    <path d="M3023 1403 c4 -3 10 -3 14 0 3 4 0 7 -7 7 -7 0 -10 -3 -7 -7z" />
    <path d="M452 1395 c1 -12 596 -601 600 -594 2 2 -133 139 -299 304 -167 165
-302 295 -301 290z" />
    <path d="M3058 1393 c7 -3 16 -2 19 1 4 3 -2 6 -13 5 l-19 -1 13 -5z" />
    <path d="M3133 1393 c4 -3 10 -3 14 0 3 4 0 7 -7 7 -7 0 -10 -3 -7 -7z" />
    <path d="M2830 1301 c0 -5 5 -13 10 -16 6 -3 10 -2 10 4 0 5 -4 13 -10 16 -5
3 -10 2 -10 -4z" />
    <path d="M0 1245 c0 -6 164 -174 365 -375 201 -201 365 -360 365 -355 0 6
-164 174 -365 375 -201 201 -365 360 -365 355z" />
    <path d="M1770 1137 c0 -17 -294 -309 -303 -301 -4 4 -7 0 -7 -9 0 -9 5 -19
10 -22 6 -3 10 0 10 7 0 7 73 86 162 175 l163 163 -18 0 c-9 0 -17 -6 -17 -13z" />
    <path d="M1910 886 c0 -2 7 -7 16 -10 l15 -6 -6 10 c-6 10 -25 14 -25 6z" />
    <path d="M1830 580 c0 -5 5 -10 11 -10 5 0 7 5 4 10 -3 6 -8 10 -11 10 -2 0
-4 -4 -4 -10z" />
    <path d="M750 461 c0 -5 5 -13 10 -16 6 -3 10 -2 10 4 0 5 -4 13 -10 16 -5 3
-10 2 -10 -4z" />
    <path d="M757 363 c-4 -3 -7 -11 -7 -17 l0 -10 12 12 c6 6 9 14 7 17 -3 3 -9
2 -12 -2z" />
    <path d="M710 285 l-12 -15 10 0 c12 0 26 19 19 26 -2 2 -10 -2 -17 -11z" />
    <path d="M507 249 c7 -7 15 -10 18 -7 3 3 -2 9 -12 12 l-18 7 12 -12z" />
    <path d="M640 240 l-15 -10 12 0 c6 0 15 5 18 10 8 12 4 12 -15 0z" />
  </g>
  <g transform="translate(0.000000,512.000000) scale(0.100000,-0.100000)" fill="#f0f4d9" stroke="none">
    <path d="M307 5062 c-32 -32 -54 -61 -51 -65 4 -4 1 -7 -7 -7 l-14 0 15 -10
c8 -5 11 -10 5 -10 -5 0 31 -40 80 -90 l90 -90 20 0 21 0 59 60 59 60 23 -22
c12 -11 20 -25 17 -29 -3 -5 3 -9 12 -9 l18 0 -39 40 -39 40 -61 -60 c-33 -33
-67 -60 -76 -60 -15 0 -179 160 -179 175 0 4 28 36 62 71 33 35 57 64 52 64
-5 0 -35 -26 -67 -58z" />
    <path d="M1249 4856 c146 -146 268 -263 273 -260 4 3 8 1 8 -4 0 -6 16 -10 35
-9 47 1 45 17 -2 17 l-37 0 -261 260 c-143 143 -265 260 -270 260 -6 0 109
-119 254 -264z" />
    <path d="M1958 4237 c189 -189 340 -346 336 -350 -4 -4 1 -7 12 -7 l19 0 -350
350 c-192 193 -352 350 -355 350 -3 0 149 -154 338 -343z" />
    <path d="M249 4433 l-14 -18 18 14 c16 13 21 21 13 21 -2 0 -10 -8 -17 -17z" />
    <path d="M1375 3740 c-3 -5 -3 -10 0 -10 4 0 -4 -13 -18 -30 l-25 -29 5 -20
c6 -23 50 -67 59 -58 4 3 -5 20 -20 37 l-26 31 9 17 c5 10 18 26 30 36 11 10
18 23 15 27 -7 12 -21 11 -29 -1z" />
    <path d="M690 3704 l0 -15 10 6 c6 4 8 11 5 16 -9 14 -15 11 -15 -7z" />
    <path d="M1650 3305 c151 -151 277 -275 280 -275 3 0 -119 124 -270 275 -151
151 -277 275 -280 275 -3 0 119 -124 270 -275z" />
    <path d="M1303 3103 l367 -368 137 137 c75 76 134 141 130 145 -4 4 -67 -52
-140 -125 l-132 -132 -355 355 c-195 195 -359 355 -365 355 -5 0 155 -165 358
-367z" />
    <path d="M874 2390 c-66 -66 -118 -122 -115 -125 3 -3 57 46 121 109 l115 115
37 3 37 3 320 -315 c177 -173 320 -312 319 -307 -2 4 -145 149 -318 322 l-315
315 -40 0 -40 0 -121 -120z" />
    <path d="M2690 1995 c-74 -74 -131 -138 -127 -142 8 -7 277 255 277 269 0 5
-3 8 -8 8 -4 0 -68 -61 -142 -135z" />
    <path d="M2850 2107 c0 -1 89 -90 198 -197 l197 -195 -195 198 c-107 108 -196
197 -197 197 -2 0 -3 -1 -3 -3z" />
    <path d="M3123 1393 c4 -3 10 -3 14 0 3 4 0 7 -7 7 -7 0 -10 -3 -7 -7z" />
    <path d="M1196 673 c-11 -11 -6 -23 9 -23 8 0 15 4 15 9 0 13 -16 22 -24 14z" />
  </g>
  <g transform="translate(0.000000,512.000000) scale(0.100000,-0.100000)" fill="#f35274" stroke="none">
    <path d="M257 4997 c-3 -8 -2 -20 3 -26 l8 -13 0 26 c0 29 -3 32 -11 13z" />
    <path d="M545 4899 c-44 -44 -89 -85 -100 -89 l-20 -9 20 0 21 -1 55 58 c76
80 114 122 108 122 -2 0 -40 -36 -84 -81z" />
    <path d="M1640 4731 c0 -6 4 -13 10 -16 l10 -6 -6 15 c-7 18 -14 21 -14 7z" />
    <path d="M1651 4683 c0 -12 -4 -30 -7 -40 l-6 -18 12 18 c6 10 9 28 7 40 l-4
22 -2 -22z" />
    <path d="M1523 4598 c7 -4 26 -8 42 -8 17 0 35 4 42 8 6 4 -13 7 -42 7 -29 0
-48 -3 -42 -7z" />
    <path d="M1346 3675 c-3 -8 -3 -21 0 -29 3 -8 33 -38 67 -67 l62 -53 -63 66
-62 66 6 16 c3 9 4 16 1 16 -3 0 -7 -7 -11 -15z" />
    <path d="M571 3573 c0 -5 14 -19 32 -33 l32 -25 -25 32 c-24 31 -41 41 -39 26z" />
    <path d="M550 3415 c-46 -46 -93 -86 -104 -88 l-21 -4 20 -2 20 -1 90 90 c49
50 87 90 85 90 -3 0 -43 -38 -90 -85z" />
    <path d="M746 3281 c-105 -105 -194 -187 -199 -184 l-10 6 8 -13 8 -12 195
193 c108 107 198 195 201 197 2 1 0 2 -5 2 -5 0 -94 -85 -198 -189z" />
    <path d="M2159 3245 c-64 -63 -113 -115 -110 -115 2 0 -85 -88 -195 -194 -109
-107 -194 -195 -189 -195 6 -1 150 139 320 309 170 171 305 310 300 310 -6 0
-62 -52 -126 -115z" />
    <path d="M3170 2585 c0 -5 5 -17 10 -25 5 -8 10 -10 10 -5 0 6 -5 17 -10 25
-5 8 -10 11 -10 5z" />
    <path d="M465 2571 c-3 -5 -1 -12 5 -16 l10 -6 0 15 c0 18 -6 21 -15 7z" />
    <path d="M165 2438 l-90 -93 90 87 c50 47 99 88 110 91 l20 5 -20 1 -20 1 -90
-92z" />
    <path d="M1025 2510 l-6 -10 16 0 16 0 -6 10 c-3 6 -8 10 -10 10 -2 0 -7 -4
-10 -10z" />
    <path d="M985 2500 c-3 -5 -2 -10 4 -10 5 0 13 5 16 10 3 6 2 10 -4 10 -5 0
-13 -4 -16 -10z" />
    <path d="M1060 2506 c0 -2 7 -7 16 -10 l15 -6 -6 10 c-6 10 -25 14 -25 6z" />
    <path d="M2780 2085 c-217 -217 -392 -395 -389 -395 4 0 99 91 211 203 228
225 584 587 577 587 -2 0 -182 -178 -399 -395z" />
    <path d="M225 2380 c-3 -5 -2 -10 4 -10 5 0 13 5 16 10 3 6 2 10 -4 10 -5 0
-13 -4 -16 -10z" />
    <path d="M1505 2268 l-100 -103 105 100 c57 55 106 101 109 103 2 1 0 2 -5 2
-5 0 -54 -46 -109 -102z" />
    <path d="M110 2305 c13 -14 26 -25 28 -25 3 0 -5 11 -18 25 -13 14 -26 25 -28
25 -3 0 5 -11 18 -25z" />
    <path d="M2560 1373 l-85 -88 88 85 c48 46 87 86 87 87 0 8 -11 -3 -90 -84z" />
    <path d="M2673 1453 c4 -3 10 -3 14 0 3 4 0 7 -7 7 -7 0 -10 -3 -7 -7z" />
    <path d="M2830 1301 c0 -6 4 -13 10 -16 l10 -6 -6 15 c-7 18 -14 21 -14 7z" />
    <path d="M2476 1267 c3 -10 9 -15 12 -12 3 3 0 11 -7 18 l-12 12 7 -18z" />
    <path d="M373 865 l377 -381 0 -16 c0 -9 4 -19 10 -23 l9 -6 -10 28 -9 28
-378 375 -377 375 378 -380z" />
    <path d="M1900 880 l-15 -10 12 0 c6 0 15 5 18 10 8 12 4 12 -15 0z" />
    <path d="M2057 750 c17 -19 33 -44 36 -55 l5 -20 1 21 1 20 -37 35 -38 34 32
-35z" />
    <path d="M1820 595 c47 -47 87 -85 90 -85 2 0 -33 38 -80 85 -47 47 -87 85
-90 85 -2 0 33 -38 80 -85z" />
    <path d="M1925 520 c-3 -5 -2 -10 4 -10 5 0 13 5 16 10 3 6 2 10 -4 10 -5 0
-13 -4 -16 -10z" />
    <path d="M755 359 c-4 -6 -5 -12 -2 -15 2 -3 7 2 10 11 7 17 1 20 -8 4z" />
    <path d="M714 289 c-3 -6 -20 -19 -38 -30 -17 -10 -25 -19 -19 -19 13 0 83 59
71 60 -4 0 -10 -5 -14 -11z" />
    <path d="M480 266 c0 -2 7 -7 16 -10 l15 -6 -6 10 c-6 10 -25 14 -25 6z" />
    <path d="M520 246 c0 -2 7 -7 16 -10 l15 -6 -6 10 c-6 10 -25 14 -25 6z" />
    <path d="M573 233 c9 -2 25 -2 35 0 9 3 1 5 -18 5 -19 0 -27 -2 -17 -5z" />
  </g>
  <g transform="translate(0.000000,512.000000) scale(0.100000,-0.100000)" fill="#eeebd2" stroke="none">
    <path d="M580 4813 c-22 -26 -39 -52 -36 -59 3 -7 0 -15 -7 -18 l-12 -4 15
-11 c13 -10 8 -15 -12 -12 -5 0 -8 -15 -8 -34 0 -19 4 -35 10 -35 5 0 7 -6 4
-14 -7 -18 21 -72 43 -85 10 -6 14 -11 8 -11 -5 0 170 -180 389 -399 220 -220
404 -397 409 -394 5 3 -173 188 -396 412 -365 366 -448 457 -431 474 3 3 0 14
-7 25 l-12 19 8 19 c5 11 9 24 10 29 2 22 50 96 72 110 26 17 30 35 9 35 -8 0
-33 -21 -56 -47z m410 -678 c217 -217 393 -395 390 -395 -3 0 -183 178 -400
395 -217 217 -393 395 -390 395 3 0 183 -178 400 -395z" />
    <path d="M218 4224 c-3 -5 -2 -18 2 -29 12 -29 468 -481 477 -472 8 8 -437
462 -450 459 -5 -2 -6 1 -3 6 3 5 -1 17 -8 27 -7 10 -15 14 -18 9z" />
    <path d="M2213 3808 l-82 -83 7 -12 8 -13 94 95 95 95 -20 0 -20 0 -82 -82z" />
    <path d="M415 1929 l-185 -184 5 -12 c2 -7 0 -13 -6 -13 -6 0 -7 -5 -3 -11 l7
-12 10 19 c5 11 91 101 190 201 100 100 178 185 174 189 -4 4 -90 -75 -192
-177z" />
    <path d="M1701 1865 c-1 -16 347 -360 356 -352 8 9 -327 348 -338 341 -4 -2
-10 2 -12 8 -3 7 -6 8 -6 3z" />
    <path d="M206 1681 c-4 -5 -3 -16 0 -25 10 -25 247 -255 257 -249 5 3 -42 56
-104 119 -62 62 -116 111 -121 108 -4 -3 -5 2 -2 10 l6 16 -11 0 -10 0 5 15
c7 16 -11 21 -20 6z m134 -146 c52 -52 92 -95 90 -95 -3 0 -48 43 -100 95 -52
52 -92 95 -90 95 3 0 48 -43 100 -95z m115 -115 c3 -5 4 -10 1 -10 -3 0 -8 5
-11 10 -3 6 -4 10 -1 10 3 0 8 -4 11 -10z" />
    <path d="M2052 1461 c2 -22 2 -39 1 -37 -2 1 -67 -62 -145 -141 -78 -78 -139
-146 -135 -150 4 -3 75 61 157 143 l150 149 -4 12 c-3 7 -1 15 4 18 l10 6 -13
19 c-19 31 -29 23 -25 -19z" />
    <path d="M1379 755 c-47 -47 -83 -87 -80 -90 3 -4 -3 -3 -13 1 l-19 7 5 -13
c2 -8 9 -15 14 -17 13 -4 187 172 183 186 -2 5 -43 -28 -90 -74z" />
    <path d="M1055 800 c3 -5 8 -10 11 -10 2 0 4 5 4 10 0 6 -5 10 -11 10 -5 0 -7
-4 -4 -10z" />
    <path d="M1086 782 c-7 -12 141 -155 157 -149 6 2 13 9 15 17 l5 13 -16 -6
c-9 -3 -17 -3 -19 1 -2 4 -33 36 -70 71 l-66 63 -6 -10z m69 -62 c33 -33 57
-60 54 -60 -2 0 -31 27 -64 60 -33 33 -57 60 -54 60 2 0 31 -27 64 -60z" />
  </g>
  <g transform="translate(0.000000,512.000000) scale(0.100000,-0.100000)" fill="#5bced3" stroke="none">
    <path d="M708 4863 c6 -2 18 -2 25 0 6 3 1 5 -13 5 -14 0 -19 -2 -12 -5z" />
    <path d="M758 4863 c7 -3 16 -2 19 1 4 3 -2 6 -13 5 l-19 -1 13 -5z" />
    <path d="M673 4853 c4 -3 10 -3 14 0 3 4 0 7 -7 7 -7 0 -10 -3 -7 -7z" />
    <path d="M626 4834 l-6 -17 15 13 c17 14 19 20 6 20 -5 0 -12 -7 -15 -16z" />
    <path d="M1460 4225 c333 -333 607 -605 610 -605 3 0 -267 272 -600 605 -333
333 -607 605 -610 605 -3 0 267 -272 600 -605z" />
    <path d="M580 4790 c-8 -5 -12 -12 -9 -15 4 -3 12 1 19 10 14 17 11 19 -10 5z" />
    <path d="M540 4731 c0 -6 5 -13 10 -16 l10 -6 0 15 c0 9 -4 16 -10 16 -5 0
-10 -4 -10 -9z" />
    <path d="M547 4633 c-4 -6 -2 -24 3 -40 l11 -28 407 -408 c224 -225 416 -413
427 -419 11 -6 -170 180 -402 413 l-421 424 -9 35 -9 34 -7 -11z" />
    <path d="M214 4202 c8 -16 22 -34 30 -41 l16 -13 0 11 c0 6 -7 14 -15 17 -8 4
-15 14 -15 24 0 10 -7 20 -15 24 l-15 5 14 -27z" />
    <path d="M174 4208 l-7 -11 11 7 c7 4 12 9 12 12 0 8 -9 4 -16 -8z" />
    <path d="M75 4118 l-80 -83 83 80 c45 44 82 81 82 82 0 8 -11 -3 -85 -79z" />
    <path d="M2374 3938 l-7 -11 11 7 c7 4 12 9 12 12 0 8 -9 4 -16 -8z" />
    <path d="M679 3683 l-14 -18 18 14 c9 7 17 15 17 17 0 8 -8 3 -21 -13z" />
    <path d="M1548 3593 c-2 -4 71 -80 162 -168 l165 -160 -160 165 c-88 90 -161
166 -161 168 -1 2 -4 0 -6 -5z" />
    <path d="M2990 3390 c0 -7 3 -10 7 -7 3 4 3 10 0 14 -4 3 -7 0 -7 -7z" />
    <path d="M2986 3343 l-7 -18 12 12 c7 7 10 15 7 18 -3 3 -9 -2 -12 -12z" />
    <path d="M1984 3190 c35 -33 65 -60 68 -60 4 0 -22 27 -56 60 -35 33 -65 60
-68 60 -4 0 22 -27 56 -60z" />
    <path d="M1727 1873 c-10 -9 -9 -23 1 -23 5 0 9 7 9 15 0 17 -1 18 -10 8z" />
    <path d="M329 1516 l124 -124 -8 -12 -8 -13 11 7 c7 4 12 13 12 20 0 14 -232
246 -246 246 -5 0 47 -56 115 -124z" />
    <path d="M2064 1435 c3 -8 1 -15 -4 -15 -6 0 -10 -5 -10 -11 l0 -11 15 12 c17
15 20 40 4 40 l-11 0 6 -15z" />
    <path d="M304 1238 l-7 -11 11 7 c12 7 16 16 8 16 -3 0 -8 -5 -12 -12z" />
    <path d="M273 1223 c4 -3 10 -3 14 0 3 4 0 7 -7 7 -7 0 -10 -3 -7 -7z" />
    <path d="M493 1093 c4 -3 10 -3 14 0 3 4 0 7 -7 7 -7 0 -10 -3 -7 -7z" />
    <path d="M454 1068 l-19 -23 23 19 c21 18 27 26 19 26 -2 0 -12 -10 -23 -22z" />
    <path d="M1965 970 c3 -5 8 -10 11 -10 3 0 2 5 -1 10 -3 6 -8 10 -11 10 -3 0
-2 -4 1 -10z" />
    <path d="M430 960 c0 -7 3 -10 7 -7 3 4 3 10 0 14 -4 3 -7 0 -7 -7z" />
    <path d="M715 660 c154 -154 282 -280 285 -280 3 0 -121 126 -275 280 -154
154 -282 280 -285 280 -3 0 121 -126 275 -280z" />
    <path d="M963 703 l0 -13 14 11 c7 6 13 12 13 14 0 1 -6 2 -13 2 -8 0 -14 -6
-14 -14z" />
    <path d="M1104 388 l-7 -11 11 7 c7 4 12 9 12 12 0 8 -9 4 -16 -8z" />
    <path d="M1018 373 c7 -3 16 -2 19 1 4 3 -2 6 -13 5 l-19 -1 13 -5z" />
    <path d="M1073 373 c4 -3 10 -3 14 0 3 4 0 7 -7 7 -7 0 -10 -3 -7 -7z" />
  </g>
  <g transform="translate(0.000000,512.000000) scale(0.100000,-0.100000)" fill="#fdf0d4" stroke="none">
    <path d="M635 4850 l-6 -10 16 0 16 0 -6 10 c-3 6 -8 10 -10 10 -2 0 -7 -4
-10 -10z" />
    <path d="M596 4821 l-17 -19 9 -6 c5 -3 17 3 26 13 l17 19 -9 6 c-5 3 -17 -3
-26 -13z" />
    <path d="M570 4785 c-1 -5 -2 -13 -1 -17 0 -5 -4 -8 -10 -8 -5 0 -8 -4 -5 -9
4 -5 0 -11 -6 -14 l-13 -4 13 -14 c7 -8 12 -9 11 -4 -2 6 2 20 10 33 7 13 10
28 7 35 l-4 12 -2 -10z" />
    <path d="M530 4670 c0 -16 4 -30 10 -30 5 0 7 -6 4 -14 -3 -8 1 -27 10 -43 8
-15 201 -212 428 -438 l413 -410 -403 405 c-221 223 -402 411 -402 418 0 6 -4
12 -9 12 -14 0 -29 50 -30 103 -1 37 -21 35 -21 -3z" />
    <path d="M217 4200 c3 -11 9 -17 14 -15 10 7 1 35 -11 35 -5 0 -6 -9 -3 -20z" />
    <path d="M248 4165 c14 -27 452 -463 452 -450 0 6 -104 114 -231 240 -127 127
-226 221 -221 210z" />
    <path d="M2221 3806 c-46 -46 -79 -86 -74 -89 5 -3 47 31 92 77 46 46 79 86
74 89 -5 3 -47 -31 -92 -77z m89 71 c0 -1 -37 -38 -82 -82 l-83 -80 80 83 c74
76 85 87 85 79z" />
    <path d="M398 1913 c-102 -104 -189 -198 -192 -210 -4 -12 -4 -33 0 -48 l7
-26 11 11 11 11 -10 7 c-12 8 -13 32 -2 50 5 6 7 12 5 12 -2 0 82 85 186 190
105 104 186 190 181 190 -6 0 -94 -84 -197 -187z" />
    <path d="M1720 1852 c0 -4 78 -85 173 -179 l172 -172 -3 -15 c-2 -9 1 -16 7
-16 6 0 11 10 11 21 l0 22 -172 173 c-94 96 -175 174 -180 174 -4 0 -8 -4 -8
-8z" />
    <path d="M340 1515 c63 -63 117 -115 120 -115 2 0 -47 52 -110 115 -63 63
-117 115 -120 115 -2 0 47 -52 110 -115z" />
    <path d="M2060 1446 c0 -23 16 -27 17 -5 1 10 -2 19 -8 19 -5 0 -9 -6 -9 -14z" />
    <path d="M1915 1280 c-77 -77 -135 -140 -130 -140 13 0 281 268 274 274 -3 3
-68 -58 -144 -134z" />
    <path d="M1378 742 c-48 -48 -91 -86 -97 -84 -6 2 -11 0 -11 -5 0 -5 -9 -9
-20 -9 -11 0 -20 4 -20 8 0 4 -6 8 -13 8 -7 0 -44 31 -82 70 -37 38 -72 67
-76 65 -9 -6 127 -138 159 -154 l23 -12 28 6 27 6 89 89 c49 49 87 92 84 95
-3 2 -44 -35 -91 -83z" />
  </g>
  <g transform="translate(0.000000,512.000000) scale(0.100000,-0.100000)" fill="#f38397" stroke="none">
    <path d="M315 5058 l-60 -63 63 60 c58 55 67 65 59 65 -1 0 -29 -28 -62 -62z" />
    <path d="M1255 4860 c143 -143 262 -260 265 -260 3 0 -112 117 -255 260 -143
143 -262 260 -265 260 -3 0 112 -117 255 -260z" />
    <path d="M1445 4930 c104 -104 192 -190 195 -190 3 0 -81 86 -185 190 -104
105 -192 190 -195 190 -3 0 81 -85 185 -190z" />
    <path d="M621 4984 l1 -19 5 13 c3 7 2 16 -1 19 -3 4 -6 -2 -5 -13z" />
    <path d="M423 4803 c4 -3 10 -3 14 0 3 4 0 7 -7 7 -7 0 -10 -3 -7 -7z" />
    <path d="M453 4803 c4 -3 10 -3 14 0 3 4 0 7 -7 7 -7 0 -10 -3 -7 -7z" />
    <path d="M1651 4704 l1 -19 5 13 c3 7 2 16 -1 19 -3 4 -6 -2 -5 -13z" />
    <path d="M1650 4660 c0 -7 3 -10 7 -7 3 4 3 10 0 14 -4 3 -7 0 -7 -7z" />
    <path d="M1624 4618 l-19 -23 23 19 c21 18 27 26 19 26 -2 0 -12 -10 -23 -22z" />
    <path d="M1533 4593 c4 -3 10 -3 14 0 3 4 0 7 -7 7 -7 0 -10 -3 -7 -7z" />
    <path d="M1583 4593 c4 -3 10 -3 14 0 3 4 0 7 -7 7 -7 0 -10 -3 -7 -7z" />
    <path d="M1346 3647 c3 -10 9 -15 12 -12 3 3 0 11 -7 18 l-12 12 7 -18z" />
    <path d="M1468 3533 c7 -3 16 -2 19 1 4 3 -2 6 -13 5 l-19 -1 13 -5z" />
    <path d="M625 3520 c3 -5 8 -10 11 -10 3 0 2 5 -1 10 -3 6 -8 10 -11 10 -3 0
-2 -4 1 -10z" />
    <path d="M1299 3108 c201 -202 368 -365 373 -362 4 3 8 8 8 11 0 4 -3 3 -7 -1
-4 -4 -172 157 -373 356 l-365 363 364 -367z" />
    <path d="M380 3377 c0 -2 15 -16 33 -33 l32 -29 -29 33 c-28 30 -36 37 -36 29z" />
    <path d="M360 2445 c47 -47 87 -85 90 -85 2 0 -33 38 -80 85 -47 47 -87 85
-90 85 -2 0 33 -38 80 -85z" />
    <path d="M984 2494 l-19 -15 25 12 c31 14 36 19 24 19 -6 0 -19 -7 -30 -16z" />
    <path d="M3176 2483 l-7 -18 12 12 c7 7 10 15 7 18 -3 3 -9 -2 -12 -12z" />
    <path d="M1760 2215 c85 -87 156 -161 158 -164 1 -2 4 -2 7 0 2 3 -69 77 -158
164 l-162 160 155 -160z" />
    <path d="M85 2330 c3 -5 8 -10 11 -10 3 0 2 5 -1 10 -3 6 -8 10 -11 10 -3 0
-2 -4 1 -10z" />
    <path d="M418 2305 c-16 -13 -25 -26 -20 -28 4 -2 17 9 30 24 13 16 22 29 20
29 -2 0 -15 -11 -30 -25z" />
    <path d="M1403 2173 c4 -3 10 -3 14 0 3 4 0 7 -7 7 -7 0 -10 -3 -7 -7z" />
    <path d="M2760 1185 c-46 -46 -93 -86 -104 -88 l-21 -4 20 -2 20 -1 90 90 c49
50 87 90 85 90 -3 0 -43 -38 -90 -85z" />
    <path d="M1980 825 c30 -30 57 -55 59 -55 3 0 -19 25 -49 55 -30 30 -57 55
-59 55 -3 0 19 -25 49 -55z" />
    <path d="M2085 720 c3 -5 8 -10 11 -10 3 0 2 5 -1 10 -3 6 -8 10 -11 10 -3 0
-2 -4 1 -10z" />
    <path d="M1730 701 c0 -11 4 -22 9 -25 l8 -5 -5 24 c-5 30 -12 33 -12 6z" />
    <path d="M2090 680 c0 -7 3 -10 7 -7 3 4 3 10 0 14 -4 3 -7 0 -7 -7z" />
    <path d="M1908 513 c7 -3 16 -2 19 1 4 3 -2 6 -13 5 l-19 -1 13 -5z" />
    <path d="M735 500 c3 -5 8 -10 11 -10 3 0 2 5 -1 10 -3 6 -8 10 -11 10 -3 0
-2 -4 1 -10z" />
    <path d="M750 470 c0 -7 3 -10 7 -7 3 4 3 10 0 14 -4 3 -7 0 -7 -7z" />
    <path d="M763 405 l0 -40 4 23 c2 12 2 30 0 40 -3 9 -5 -1 -4 -23z" />
    <path d="M737 317 l-17 -32 20 24 c17 20 26 41 18 41 -2 0 -11 -15 -21 -33z" />
    <path d="M684 258 l-7 -11 11 7 c7 4 12 9 12 12 0 8 -9 4 -16 -8z" />
    <path d="M553 233 c4 -3 10 -3 14 0 3 4 0 7 -7 7 -7 0 -10 -3 -7 -7z" />
    <path d="M618 233 c7 -3 16 -2 19 1 4 3 -2 6 -13 5 l-19 -1 13 -5z" />
  </g>
  <g transform="translate(0.000000,512.000000) scale(0.100000,-0.100000)" fill="#8ed9d7" stroke="none">
    <path d="M801 4856 c2 -2 15 -9 29 -15 l25 -12 -19 15 c-11 9 -24 16 -30 16
-5 0 -7 -2 -5 -4z" />
    <path d="M566 4765 c-9 -26 -7 -32 5 -12 6 10 9 21 6 23 -2 3 -7 -2 -11 -11z" />
    <path d="M550 4610 c0 -7 3 -10 7 -7 3 4 3 10 0 14 -4 3 -7 0 -7 -7z" />
    <path d="M575 4560 c3 -5 8 -10 11 -10 2 0 4 5 4 10 0 6 -5 10 -11 10 -5 0 -7
-4 -4 -10z" />
    <path d="M466 3940 c122 -124 224 -232 227 -240 l5 -15 1 15 c1 8 -101 116
-226 240 l-228 225 221 -225z" />
    <path d="M2408 3953 c7 -3 16 -2 19 1 4 3 -2 6 -13 5 l-19 -1 13 -5z" />
    <path d="M2720 3675 c146 -146 267 -265 270 -265 3 0 -114 119 -260 265 -146
146 -267 265 -270 265 -3 0 114 -119 260 -265z" />
    <path d="M1887 3259 c7 -7 15 -10 18 -7 3 3 -2 9 -12 12 l-18 7 12 -12z" />
    <path d="M573 2103 c3 -5 -77 -92 -179 -194 -101 -101 -184 -191 -183 -199 l1
-15 5 15 c3 8 88 99 190 201 l185 186 -12 8 -13 8 6 -10z" />
    <path d="M211 1644 l1 -19 5 13 c3 7 2 16 -1 19 -3 4 -6 -2 -5 -13z" />
    <path d="M2576 1567 c3 -10 9 -15 12 -12 3 3 0 11 -7 18 l-12 12 7 -18z" />
    <path d="M2062 1508 c7 -15 15 -23 17 -17 2 6 -4 18 -13 27 l-16 17 12 -27z" />
    <path d="M2576 1513 l-7 -18 12 12 c7 7 10 15 7 18 -3 3 -9 -2 -12 -12z" />
    <path d="M1921 1276 l-133 -133 13 -8 14 -8 -8 8 -8 9 133 133 c73 73 130 133
128 133 -3 0 -65 -60 -139 -134z" />
    <path d="M237 1229 c7 -7 15 -10 18 -7 3 3 -2 9 -12 12 l-18 7 12 -12z" />
    <path d="M560 1096 c0 -2 7 -7 16 -10 l15 -6 -6 10 c-6 10 -25 14 -25 6z" />
    <path d="M780 895 c102 -102 187 -185 190 -185 3 0 -78 83 -180 185 -102 102
-187 185 -190 185 -3 0 78 -83 180 -185z" />
    <path d="M421 994 l1 -19 5 13 c3 7 2 16 -1 19 -3 4 -6 -2 -5 -13z" />
    <path d="M2003 953 c4 -3 10 -3 14 0 3 4 0 7 -7 7 -7 0 -10 -3 -7 -7z" />
    <path d="M990 386 c0 -2 7 -7 16 -10 l15 -6 -6 10 c-6 10 -25 14 -25 6z" />
  </g>
  <g transform="translate(0.000000,512.000000) scale(0.100000,-0.100000)" fill="#f4a8b1" stroke="none">
    <path d="M340 4885 c47 -47 87 -85 90 -85 2 0 -33 38 -80 85 -47 47 -87 85
-90 85 -2 0 33 -38 80 -85z" />
    <path d="M1635 4740 c3 -5 8 -10 11 -10 3 0 2 5 -1 10 -3 6 -8 10 -11 10 -3 0
-2 -4 1 -10z" />
    <path d="M1374 3708 l-29 -33 33 29 c30 28 37 36 29 36 -2 0 -16 -15 -33 -32z" />
    <path d="M1524 3568 l-29 -33 33 29 c17 17 32 31 32 33 0 8 -8 1 -36 -29z" />
    <path d="M631 3504 l1 -19 5 13 c3 7 2 16 -1 19 -3 4 -6 -2 -5 -13z" />
    <path d="M2935 2820 c132 -132 242 -240 245 -240 3 0 -103 108 -235 240 -132
132 -242 240 -245 240 -3 0 103 -108 235 -240z" />
    <path d="M1013 2503 c4 -3 10 -3 14 0 3 4 0 7 -7 7 -7 0 -10 -3 -7 -7z" />
    <path d="M1053 2503 c4 -3 10 -3 14 0 3 4 0 7 -7 7 -7 0 -10 -3 -7 -7z" />
    <path d="M1085 2490 c3 -5 8 -10 11 -10 3 0 2 5 -1 10 -3 6 -8 10 -11 10 -3 0
-2 -4 1 -10z" />
    <path d="M864 2380 c-61 -61 -108 -110 -105 -110 4 0 56 50 116 110 60 61 107
110 105 110 -3 0 -55 -50 -116 -110z" />
    <path d="M81 2344 l1 -19 5 13 c3 7 2 16 -1 19 -3 4 -6 -2 -5 -13z" />
    <path d="M2841 1274 l1 -19 5 13 c3 7 2 16 -1 19 -3 4 -6 -2 -5 -13z" />
    <path d="M2560 1175 c47 -47 87 -85 90 -85 2 0 -33 38 -80 85 -47 47 -87 85
-90 85 -2 0 33 -38 80 -85z" />
    <path d="M1810 793 l-85 -88 88 85 c81 79 92 90 84 90 -1 0 -41 -39 -87 -87z" />
    <path d="M240 505 c135 -135 247 -245 250 -245 3 0 -105 110 -240 245 -135
135 -247 245 -250 245 -3 0 105 -110 240 -245z" />
    <path d="M1923 513 c4 -3 10 -3 14 0 3 4 0 7 -7 7 -7 0 -10 -3 -7 -7z" />
    <path d="M760 440 c0 -7 3 -10 7 -7 3 4 3 10 0 14 -4 3 -7 0 -7 -7z" />
    <path d="M760 370 c0 -7 3 -10 7 -7 3 4 3 10 0 14 -4 3 -7 0 -7 -7z" />
    <path d="M543 233 c4 -3 10 -3 14 0 3 4 0 7 -7 7 -7 0 -10 -3 -7 -7z" />
  </g>
  <g transform="translate(0.000000,512.000000) scale(0.100000,-0.100000)" fill="#65859a" stroke="none">
    <path d="M1424 3758 l-29 -33 33 29 c17 17 32 31 32 33 0 8 -8 1 -36 -29z" />
    <path d="M1480 3786 c0 -2 7 -7 16 -10 l15 -6 -6 10 c-6 10 -25 14 -25 6z" />
    <path d="M1601 3666 c0 -11 -13 -34 -28 -50 l-28 -31 34 31 33 31 -5 19 -5 19
-1 -19z" />
    <path d="M2308 3373 c7 -3 16 -2 19 1 4 3 -2 6 -13 5 l-19 -1 13 -5z" />
    <path d="M2545 3210 c88 -88 162 -160 165 -160 3 0 -67 72 -155 160 -88 88
-162 160 -165 160 -3 0 67 -72 155 -160z" />
    <path d="M215 3048 l-170 -173 170 167 c94 91 179 168 190 171 l20 5 -20 1
-20 1 -170 -172z" />
    <path d="M51 2854 l1 -19 5 13 c3 7 2 16 -1 19 -3 4 -6 -2 -5 -13z" />
    <path d="M439 2543 l-34 -38 31 28 c17 15 33 25 36 22 2 -3 5 2 5 10 0 8 -1
15 -2 15 0 0 -17 -17 -36 -37z" />
    <path d="M235 2380 l-6 -10 15 6 c18 7 21 14 7 14 -6 0 -13 -4 -16 -10z" />
    <path d="M280 2383 c8 -3 22 -11 30 -17 l15 -11 -14 18 c-7 9 -21 17 -30 16
l-16 -1 15 -5z" />
    <path d="M2270 1706 c0 -2 8 -10 18 -17 l17 -14 -14 18 c-13 16 -21 21 -21 13z" />
    <path d="M2387 1693 c-4 -3 -24 -9 -44 -13 l-38 -8 31 -1 c16 0 39 6 50 14 10
8 16 15 13 15 -3 0 -9 -3 -12 -7z" />
    <path d="M1537 740 l82 -85 4 -25 4 -25 2 25 1 25 -87 85 -88 85 82 -85z" />
    <path d="M1130 715 c43 -41 85 -75 92 -75 7 0 0 9 -17 19 -16 10 -55 44 -85
75 -30 31 -58 56 -62 56 -3 0 29 -34 72 -75z" />
    <path d="M1299 653 l-14 -18 18 14 c16 13 21 21 13 21 -2 0 -10 -8 -17 -17z" />
    <path d="M1248 633 c7 -3 16 -2 19 1 4 3 -2 6 -13 5 l-19 -1 13 -5z" />
    <path d="M1200 345 c35 -36 67 -65 69 -65 3 0 -24 29 -59 65 -35 36 -67 65
-69 65 -3 0 24 -29 59 -65z" />
  </g>
  <g transform="translate(0.000000,512.000000) scale(0.100000,-0.100000)" fill="#31c0cb" stroke="none">
    <path d="M738 4863 c7 -3 16 -2 19 1 4 3 -2 6 -13 5 l-19 -1 13 -5z" />
    <path d="M643 4843 c4 -3 10 -3 14 0 3 4 0 7 -7 7 -7 0 -10 -3 -7 -7z" />
    <path d="M610 4819 c0 -5 5 -7 10 -4 6 3 10 8 10 11 0 2 -4 4 -10 4 -5 0 -10
-5 -10 -11z" />
    <path d="M554 4738 l-7 -11 11 7 c7 4 12 9 12 12 0 8 -9 4 -16 -8z" />
    <path d="M550 4710 c0 -7 3 -10 7 -7 3 4 3 10 0 14 -4 3 -7 0 -7 -7z" />
    <path d="M220 4190 c0 -7 3 -10 7 -7 3 4 3 10 0 14 -4 3 -7 0 -7 -7z" />
    <path d="M2215 3778 l-160 -163 163 160 c89 88 162 161 162 162 0 2 -1 3 -3 3
-1 0 -74 -73 -162 -162z" />
    <path d="M480 2195 c52 -52 97 -95 100 -95 2 0 -38 43 -90 95 -52 52 -97 95
-100 95 -2 0 38 -43 90 -95z" />
    <path d="M1820 1963 l-95 -98 100 95 c55 52 101 96 104 98 2 1 0 2 -5 2 -5 0
-52 -44 -104 -97z" />
    <path d="M207 1703 c-9 -9 -9 -41 1 -46 4 -3 7 8 7 24 0 16 0 29 -1 29 0 0 -4
-3 -7 -7z" />
    <path d="M375 1308 l-70 -73 73 70 c39 38 72 71 72 72 0 8 -11 -2 -75 -69z" />
    <path d="M258 1223 c7 -3 16 -2 19 1 4 3 -2 6 -13 5 l-19 -1 13 -5z" />
    <path d="M1880 1055 c47 -47 87 -85 90 -85 2 0 -33 38 -80 85 -47 47 -87 85
-90 85 -2 0 33 -38 80 -85z" />
    <path d="M454 1068 l-7 -11 11 7 c12 7 16 16 8 16 -3 0 -8 -5 -12 -12z" />
    <path d="M1063 373 c4 -3 10 -3 14 0 3 4 0 7 -7 7 -7 0 -10 -3 -7 -7z" />
  </g>
  <g transform="translate(0.000000,512.000000) scale(0.100000,-0.100000)" fill="#18b4c1" stroke="none">
    <path d="M600 4815 c-7 -9 -11 -18 -8 -20 3 -3 11 1 18 10 7 9 11 18 8 20 -3
3 -11 -1 -18 -10z" />
    <path d="M544 4698 l-7 -11 11 7 c7 4 12 9 12 12 0 8 -9 4 -16 -8z" />
    <path d="M545 4640 c3 -5 8 -10 11 -10 3 0 2 5 -1 10 -3 6 -8 10 -11 10 -3 0
-2 -4 1 -10z" />
    <path d="M573 4563 c4 -3 10 -3 14 0 3 4 0 7 -7 7 -7 0 -10 -3 -7 -7z" />
    <path d="M1453 3783 c4 -3 10 -3 14 0 3 4 0 7 -7 7 -7 0 -10 -3 -7 -7z" />
    <path d="M1595 3680 c3 -5 8 -10 11 -10 3 0 2 5 -1 10 -3 6 -8 10 -11 10 -3 0
-2 -4 1 -10z" />
    <path d="M570 3569 c0 -5 5 -7 10 -4 6 3 10 8 10 11 0 2 -4 4 -10 4 -5 0 -10
-5 -10 -11z" />
    <path d="M373 3373 c4 -3 10 -3 14 0 3 4 0 7 -7 7 -7 0 -10 -3 -7 -7z" />
    <path d="M2171 3253 l-126 -127 130 124 c72 68 132 125 134 127 2 2 1 3 -3 3
-5 0 -65 -57 -135 -127z" />
    <path d="M2370 3370 c8 -5 20 -10 25 -10 6 0 3 5 -5 10 -8 5 -19 10 -25 10 -5
0 -3 -5 5 -10z" />
    <path d="M258 2383 c7 -3 16 -2 19 1 4 3 -2 6 -13 5 l-19 -1 13 -5z" />
    <path d="M223 2373 c4 -3 10 -3 14 0 3 4 0 7 -7 7 -7 0 -10 -3 -7 -7z" />
    <path d="M350 2328 c41 -45 50 -53 50 -45 0 2 -21 23 -47 47 l-48 45 45 -47z" />
    <path d="M1885 1690 c93 -93 171 -167 174 -164 7 6 -321 334 -334 334 -5 0 66
-76 160 -170z" />
    <path d="M2411 1710 c-13 -11 -19 -20 -14 -20 6 0 18 9 28 20 23 25 17 25 -14
0z" />
    <path d="M2290 1686 c0 -2 7 -7 16 -10 l15 -6 -6 10 c-6 10 -25 14 -25 6z" />
    <path d="M2364 1678 l-7 -11 11 7 c7 4 12 9 12 12 0 8 -9 4 -16 -8z" />
    <path d="M2073 1465 c0 -8 4 -12 9 -9 5 3 6 10 3 15 -9 13 -12 11 -12 -6z" />
    <path d="M920 640 c0 -7 3 -10 7 -7 3 4 3 10 0 14 -4 3 -7 0 -7 -7z" />
  </g>
  <g transform="translate(0.000000,512.000000) scale(0.100000,-0.100000)" fill="#f0d8c7" stroke="none">
    <path d="M515 4858 l-60 -63 63 60 c58 55 67 65 59 65 -1 0 -29 -28 -62 -62z" />
    <path d="M1340 3660 c0 -7 3 -10 7 -7 3 4 3 10 0 14 -4 3 -7 0 -7 -7z" />
    <path d="M1370 3615 c13 -14 26 -25 28 -25 3 0 -5 11 -18 25 -13 14 -26 25
-28 25 -3 0 5 -11 18 -25z" />
    <path d="M1800 2883 l-135 -138 138 135 c75 74 137 136 137 137 0 2 -1 3 -3 3
-1 0 -63 -62 -137 -137z" />
    <path d="M1028 2503 c6 -2 18 -2 25 0 6 3 1 5 -13 5 -14 0 -19 -2 -12 -5z" />
    <path d="M1245 2330 c88 -88 162 -160 165 -160 3 0 -67 72 -155 160 -88 88
-162 160 -165 160 -3 0 67 -72 155 -160z" />
    <path d="M2695 1988 l-140 -143 143 140 c78 77 142 141 142 142 0 2 -1 3 -3 3
-1 0 -65 -64 -142 -142z" />
  </g>
  <g transform="translate(0.000000,512.000000) scale(0.100000,-0.100000)" fill="#cbd9d4" stroke="none">
    <path d="M599 4813 l-14 -18 18 14 c9 7 17 15 17 17 0 8 -8 3 -21 -13z" />
    <path d="M542 4670 c0 -19 2 -27 5 -17 2 9 2 25 0 35 -3 9 -5 1 -5 -18z" />
    <path d="M574 3568 l-7 -11 11 7 c7 4 12 9 12 12 0 8 -9 4 -16 -8z" />
    <path d="M485 3150 c33 -33 62 -60 64 -60 3 0 -21 27 -54 60 -33 33 -62 60
-64 60 -3 0 21 -27 54 -60z" />
    <path d="M55 2840 c3 -5 8 -10 11 -10 3 0 2 5 -1 10 -3 6 -8 10 -11 10 -3 0
-2 -4 1 -10z" />
    <path d="M403 2513 c4 -3 10 -3 14 0 3 4 0 7 -7 7 -7 0 -10 -3 -7 -7z" />
    <path d="M1885 1690 c93 -93 172 -170 175 -170 3 0 -72 77 -165 170 -93 94
-172 170 -175 170 -3 0 72 -76 165 -170z" />
    <path d="M2070 1480 c0 -7 3 -10 7 -7 3 4 3 10 0 14 -4 3 -7 0 -7 -7z" />
    <path d="M2070 1450 c0 -7 3 -10 7 -7 3 4 3 10 0 14 -4 3 -7 0 -7 -7z" />
    <path d="M1015 748 l-40 -43 43 40 c23 21 42 40 42 42 0 8 -9 0 -45 -39z" />
    <path d="M2010 593 l-85 -88 88 85 c81 79 92 90 84 90 -1 0 -41 -39 -87 -87z" />
    <path d="M1225 640 c3 -5 8 -10 11 -10 3 0 2 5 -1 10 -3 6 -8 10 -11 10 -3 0
-2 -4 1 -10z" />
    <path d="M1265 640 l-6 -10 15 6 c18 7 21 14 7 14 -6 0 -13 -4 -16 -10z" />
    <path d="M1614 608 l-7 -11 11 7 c12 7 16 16 8 16 -3 0 -8 -5 -12 -12z" />
    <path d="M1304 298 l-7 -11 11 7 c12 7 16 16 8 16 -3 0 -8 -5 -12 -12z" />
    <path d="M1263 283 c4 -3 10 -3 14 0 3 4 0 7 -7 7 -7 0 -10 -3 -7 -7z" />
  </g>
  <g transform="translate(0.000000,512.000000) scale(0.100000,-0.100000)" fill="#b1bac3" stroke="none">
    <path d="M50 2880 c0 -7 3 -10 7 -7 3 4 3 10 0 14 -4 3 -7 0 -7 -7z" />
    <path d="M215 2680 c88 -88 162 -160 165 -160 3 0 -67 72 -155 160 -88 88
-162 160 -165 160 -3 0 67 -72 155 -160z" />
    <path d="M393 2513 c4 -3 10 -3 14 0 3 4 0 7 -7 7 -7 0 -10 -3 -7 -7z" />
    <path d="M1385 738 l-80 -83 83 80 c45 44 82 81 82 82 0 8 -11 -3 -85 -79z" />
    <path d="M1283 643 c4 -3 10 -3 14 0 3 4 0 7 -7 7 -7 0 -10 -3 -7 -7z" />
    <path d="M1460 453 l-155 -158 158 155 c86 85 157 156 157 157 0 2 -1 3 -3 3
-1 0 -72 -71 -157 -157z" />
    <path d="M1273 283 c4 -3 10 -3 14 0 3 4 0 7 -7 7 -7 0 -10 -3 -7 -7z" />
  </g>
  <g transform="translate(0.000000,512.000000) scale(0.100000,-0.100000)" fill="#f8c8cc" stroke="none">
    <path d="M560 5065 c30 -30 57 -55 59 -55 3 0 -19 25 -49 55 -30 30 -57 55
-59 55 -3 0 19 -25 49 -55z" />
    <path d="M610 2415 c80 -80 147 -145 150 -145 2 0 -60 65 -140 145 -80 80
-147 145 -150 145 -2 0 60 -65 140 -145z" />
    <path d="M3191 2524 l1 -19 5 13 c3 7 2 16 -1 19 -3 4 -6 -2 -5 -13z" />
    <path d="M2755 1380 c44 -44 82 -80 85 -80 2 0 -31 36 -75 80 -44 44 -82 80
-85 80 -2 0 31 -36 75 -80z" />
  </g>
  <g transform="translate(0.000000,512.000000) scale(0.100000,-0.100000)" fill="#916c89" stroke="none">
    <path d="M1545 3730 c27 -27 51 -50 54 -50 3 0 -17 23 -44 50 -27 28 -51 50
-54 50 -3 0 17 -22 44 -50z" />
    <path d="M384 3378 l-7 -11 11 7 c7 4 12 9 12 12 0 8 -9 4 -16 -8z" />
    <path d="M2323 3373 c4 -3 10 -3 14 0 3 4 0 7 -7 7 -7 0 -10 -3 -7 -7z" />
    <path d="M2353 3373 c4 -3 10 -3 14 0 3 4 0 7 -7 7 -7 0 -10 -3 -7 -7z" />
    <path d="M2284 3358 l-7 -11 11 7 c7 4 12 9 12 12 0 8 -9 4 -16 -8z" />
    <path d="M134 2288 l-7 -11 11 7 c7 4 12 9 12 12 0 8 -9 4 -16 -8z" />
    <path d="M2095 1880 c99 -99 182 -180 185 -180 3 0 -76 81 -175 180 -99 99
-182 180 -185 180 -3 0 76 -81 175 -180z" />
  </g>
  <g transform="translate(0.000000,512.000000) scale(0.100000,-0.100000)" fill="#a85d7d" stroke="none">
    <path d="M1468 3783 c7 -3 16 -2 19 1 4 3 -2 6 -13 5 l-19 -1 13 -5z" />
    <path d="M480 3473 l-95 -98 98 95 c90 88 102 100 94 100 -1 0 -45 -44 -97
-97z" />
    <path d="M2338 3373 c7 -3 16 -2 19 1 4 3 -2 6 -13 5 l-19 -1 13 -5z" />
    <path d="M180 2335 c-24 -25 -42 -45 -39 -45 3 0 25 20 49 45 24 25 42 45 39
45 -3 0 -25 -20 -49 -45z" />
  </g>
  <g transform="translate(0.000000,512.000000) scale(0.100000,-0.100000)" fill="#534b6d" stroke="none">
    <path d="M50 2870 c0 -7 3 -10 7 -7 3 4 3 10 0 14 -4 3 -7 0 -7 -7z" />
    <path d="M605 2708 l-140 -143 143 140 c78 77 142 141 142 142 0 2 -1 3 -3 3
-1 0 -65 -64 -142 -142z" />
    <path d="M1233 633 c4 -3 10 -3 14 0 3 4 0 7 -7 7 -7 0 -10 -3 -7 -7z" />
  </g>
</svg>
