<?xml version="1.0" standalone="no"?>
<!DOCTYPE svg PUBLIC "-//W3C//DTD SVG 20010904//EN"
 "http://www.w3.org/TR/2001/REC-SVG-20010904/DTD/svg10.dtd">
<svg version="1.0" xmlns="http://www.w3.org/2000/svg"
 width="948.000000pt" height="465.000000pt" viewBox="0 0 948.000000 465.000000"
 preserveAspectRatio="xMidYMid meet">
<metadata>
Created by potrace 1.16, written by Peter Selinger 2001-2019
</metadata>
<g transform="translate(0.000000,465.000000) scale(0.100000,-0.100000)"
fill="#000000" stroke="none">
<path d="M8785 3773 c-3 -19 -12 -44 -18 -56 -9 -15 -9 -21 1 -24 8 -3 12 -25
12 -63 l0 -58 -92 -45 c-51 -26 -104 -53 -118 -60 -14 -8 -54 -27 -89 -43 -36
-16 -91 -46 -124 -67 -32 -21 -93 -55 -135 -77 -42 -22 -108 -59 -147 -82
-111 -68 -98 -108 35 -108 l59 0 -15 -42 c-23 -68 -92 -134 -116 -110 -12 12
-54 3 -69 -15 -8 -9 -13 -55 -13 -128 -1 -124 0 -125 55 -125 23 0 29 -4 29
-23 0 -28 -42 -179 -64 -232 -51 -120 -189 -307 -215 -290 -6 3 -11 2 -11 -4
0 -17 -105 -91 -128 -91 -12 0 -21 3 -20 8 3 10 -13 122 -19 139 -6 14 -43 18
-43 4 0 -14 -60 -22 -81 -11 -10 6 -19 17 -19 24 0 22 -29 27 -39 7 -7 -13
-18 -17 -34 -14 -18 4 -29 -2 -41 -19 -16 -21 -17 -21 -14 -3 2 14 -2 19 -12
16 -14 -4 -68 -11 -97 -13 -7 -1 -25 -21 -40 -45 -15 -24 -33 -41 -40 -39 -6
3 -15 -4 -18 -15 -9 -28 -25 -23 -36 11 -6 17 -14 30 -18 30 -9 0 -45 61 -46
80 -4 47 -6 50 -29 50 -24 0 -36 16 -36 50 0 18 -19 30 -45 30 -19 0 -105 59
-105 72 0 6 -16 26 -35 45 -19 19 -35 41 -35 49 0 11 -6 13 -21 9 -30 -10 -70
14 -68 39 3 40 -1 57 -12 51 -6 -4 -9 -23 -7 -44 3 -30 0 -36 -18 -39 -16 -2
-23 4 -28 22 -5 22 -10 25 -39 19 -17 -3 -36 -6 -41 -7 -5 0 -16 12 -24 27
-10 21 -17 26 -25 18 -18 -18 -35 -13 -39 12 -2 17 -9 22 -31 20 -15 -1 -27 2
-27 8 0 5 -6 9 -13 9 -8 0 -28 18 -46 41 -24 29 -36 38 -44 30 -6 -6 -19 -11
-28 -11 -9 0 -20 -7 -23 -16 -5 -13 -15 -15 -41 -11 -27 4 -39 1 -59 -20 -24
-24 -31 -23 -27 1 3 13 -42 106 -50 106 -10 0 -29 -59 -29 -91 0 -34 -15 -45
-43 -31 -12 6 -34 13 -49 16 -21 5 -28 12 -28 31 0 13 -4 27 -10 30 -5 3 -10
15 -10 26 0 23 -35 26 -44 4 -3 -8 -12 -15 -20 -15 -9 0 -32 -15 -52 -32 -20
-18 -44 -33 -52 -33 -8 0 -20 -9 -26 -20 -6 -11 -12 -22 -14 -25 -2 -2 -7 2
-12 10 -7 12 -44 15 -200 14 -104 0 -190 3 -190 6 0 8 -29 47 -55 74 -11 12
-29 38 -39 59 -11 20 -23 37 -28 37 -4 0 -8 18 -8 40 0 33 -44 145 -67 170 -2
2 -19 3 -37 2 -38 -3 -56 13 -65 61 -5 25 -12 33 -33 35 -15 2 -37 -2 -48 -8
-18 -10 -24 -8 -35 7 -13 17 -14 17 -33 0 -23 -21 -91 -57 -108 -57 -18 0 -62
-43 -73 -72 -8 -21 -18 -27 -53 -33 -63 -10 -124 -40 -131 -65 -5 -19 -8 -20
-28 -10 -25 14 -39 1 -39 -38 0 -13 -6 -38 -14 -55 -7 -18 -18 -44 -24 -59 -9
-22 -18 -28 -41 -28 -16 0 -34 7 -41 15 -7 8 -20 15 -29 15 -9 0 -26 7 -38 15
-23 16 -77 14 -111 -4 -12 -6 -40 -11 -64 -11 -35 0 -52 8 -93 40 -45 36 -56
40 -106 40 -63 0 -98 10 -183 51 -33 16 -65 29 -71 29 -7 0 -19 7 -26 16 -7 9
-23 20 -36 25 -26 10 -92 96 -93 121 0 9 -3 24 -6 32 -10 27 -34 -2 -34 -41 0
-22 -4 -33 -12 -31 -16 3 -68 -41 -68 -59 0 -7 -7 -13 -15 -13 -8 0 -15 6 -15
14 0 8 -7 16 -15 20 -11 4 -22 -8 -37 -39 -12 -25 -25 -45 -28 -45 -4 0 -17
-9 -30 -20 -13 -11 -29 -20 -35 -20 -7 0 -18 -7 -25 -15 -7 -8 -23 -15 -36
-15 -30 0 -104 -34 -133 -61 -11 -11 -21 -31 -21 -44 0 -80 -47 9 -75 143 -9
42 -18 41 -38 -5 -9 -21 -28 -58 -42 -83 -20 -34 -25 -54 -21 -81 4 -27 2 -38
-9 -43 -11 -4 -14 -13 -10 -29 8 -31 -25 -95 -58 -112 -17 -9 -41 -10 -88 -3
-35 5 -83 6 -105 3 -23 -3 -79 -6 -125 -6 -72 0 -85 2 -98 20 -11 15 -23 19
-39 15 -28 -8 -144 15 -154 30 -4 6 -10 36 -14 67 -12 102 -32 105 -53 7 -11
-50 -16 -58 -35 -58 -12 0 -33 -11 -46 -24 -12 -14 -35 -28 -51 -31 -16 -4
-52 -20 -81 -36 -29 -16 -61 -29 -70 -29 -10 0 -49 -16 -88 -36 -49 -25 -70
-41 -70 -54 0 -16 -7 -18 -52 -15 -29 2 -74 7 -100 11 -32 4 -52 3 -62 -5 -13
-11 -17 -7 -29 21 -7 18 -17 45 -21 60 -11 47 -36 35 -36 -16 0 -25 -5 -48
-11 -52 -8 -4 -7 -9 2 -15 30 -18 -1 -18 -54 1 -31 11 -61 20 -67 20 -6 0 -28
11 -50 25 -22 14 -49 25 -60 25 -11 0 -20 4 -20 9 0 5 -14 14 -31 20 -42 14
-69 47 -69 84 0 26 -3 28 -24 23 -20 -5 -26 -1 -35 26 -6 17 -11 39 -11 49 0
33 -30 52 -72 45 -35 -6 -42 -3 -75 29 -29 28 -39 33 -55 24 -10 -6 -22 -17
-25 -25 -3 -8 -11 -14 -19 -14 -9 0 -6 11 11 36 34 51 32 61 -14 54 -9 -1 -12
5 -9 17 12 42 12 47 1 48 -20 0 -26 14 -13 30 10 12 10 15 -4 15 -9 0 -16 -8
-16 -20 0 -11 -4 -20 -10 -20 -15 0 -12 -26 4 -39 8 -7 12 -21 9 -32 -4 -14
-9 -17 -16 -10 -19 19 -27 12 -27 -20 0 -29 -2 -30 -30 -24 -35 8 -39 -4 -10
-30 31 -28 24 -37 -22 -30 -51 9 -75 20 -109 51 -16 15 -47 28 -85 35 -32 6
-72 19 -89 29 -16 9 -45 20 -62 23 l-33 7 0 -1410 0 -1410 4740 0 4740 0 0
1118 c0 625 -4 1154 -10 1202 -5 47 -12 125 -15 174 -3 49 -8 93 -11 98 -5 7
10 12 29 9 4 0 7 92 7 205 0 179 -2 205 -14 194 -8 -6 -25 -10 -38 -8 -21 3
-23 9 -26 71 l-3 68 40 17 41 17 0 86 c0 95 2 92 -76 114 -18 4 -24 17 -30 63
-8 52 -11 57 -36 60 -18 2 -28 -2 -29 -10 -1 -7 -2 -26 -4 -43 -2 -35 -5 -35
-90 4 -71 32 -214 81 -237 81 -8 0 -46 14 -83 31 l-68 30 6 67 c4 37 9 79 13
95 5 22 4 26 -10 21 -11 -4 -16 0 -16 14 0 11 -6 22 -14 25 -10 4 -16 -5 -21
-30z m-683 -1144 c-3 -48 10 -62 60 -65 38 -2 43 -5 42 -26 -24 -411 -38 -548
-56 -548 -12 0 -10 -34 3 -47 9 -9 5 -14 -15 -19 -30 -7 -41 -1 -41 24 0 23
-57 29 -75 8 -7 -9 -16 -16 -21 -16 -18 0 -39 33 -39 62 0 36 -9 33 -15 -4
-14 -74 -50 -118 -99 -118 -15 0 -58 74 -54 92 4 18 -22 78 -34 78 -5 0 -12
-9 -15 -20 -3 -13 -14 -20 -29 -20 -33 0 -30 6 16 36 77 51 164 147 214 237
14 26 37 66 50 90 29 53 73 187 81 250 7 56 31 61 27 6z m878 -33 c0 -8 -150
-116 -161 -116 -13 0 -199 108 -199 116 0 2 81 4 180 4 99 0 180 -2 180 -4z
m-315 -111 c28 -16 61 -35 75 -42 17 -9 20 -13 8 -13 -9 0 -18 -3 -20 -7 -2
-5 -15 -19 -30 -32 l-27 -23 -38 22 c-21 13 -53 37 -70 54 -29 26 -33 37 -33
78 l0 49 43 -29 c23 -15 65 -41 92 -57z m371 -50 c-3 -12 -20 -28 -38 -37 -31
-14 -35 -14 -80 11 -26 14 -48 29 -48 32 0 4 19 19 42 34 45 30 47 31 93 69
l30 24 3 -56 c2 -31 1 -66 -2 -77z m354 -178 c5 -26 10 -58 9 -70 0 -21 -1
-21 -12 3 -12 26 -18 33 -86 113 -23 27 -41 50 -41 52 0 4 6 18 44 107 9 20
16 40 16 45 0 5 8 20 17 33 17 24 18 22 30 -105 7 -72 17 -152 23 -178z m-704
24 c11 -10 31 -24 43 -31 23 -12 23 -12 -15 -37 -20 -15 -50 -26 -66 -27 -15
-1 -26 -5 -25 -11 3 -9 -48 -48 -65 -50 -3 0 -10 -3 -14 -7 -15 -16 -19 -7
-16 42 4 48 6 51 64 95 33 25 63 45 67 45 4 0 16 -8 27 -19z m329 -5 c27 -14
28 -19 33 -102 l4 -87 -28 22 c-16 12 -59 42 -96 68 l-67 45 47 34 c53 37 68
40 107 20z m-189 -101 c4 -8 10 -15 16 -15 5 0 36 -23 69 -50 33 -28 73 -57
90 -65 16 -9 29 -19 29 -24 0 -7 -479 -5 -486 2 -4 4 80 65 121 88 17 9 53 30
80 47 57 35 73 38 81 17z m430 -60 c36 -25 68 -45 72 -45 9 0 72 -44 72 -50 0
-3 -61 -7 -136 -8 -127 -2 -136 -1 -130 15 35 91 51 133 53 133 2 0 32 -20 69
-45z m-293 -254 c-59 -54 -59 -54 -87 -26 -32 32 -53 32 -68 0 -6 -14 -20 -25
-30 -25 -24 0 -69 30 -62 41 3 5 1 9 -5 9 -6 0 -8 6 -5 14 4 11 32 14 127 15
66 1 123 3 125 6 2 2 11 1 19 -2 12 -5 9 -11 -14 -32z"/>
</g>
</svg>
