<svg version="1.2" xmlns="http://www.w3.org/2000/svg" viewBox="0 0 2001 1333" width="2001" height="1333"><style>.a{fill:#f9feff}.b{fill:#ddf4ff}.c{fill:#f0f9ff}.d{fill:#a3ddf0}.e{fill:#f6fbfd}.f{fill:#a7e3f2}.g{fill:#47bbd9}</style><path fill-rule="evenodd" class="a" d="m70.3 0.5l5.2 14.5 99.5 99.5c54.7 54.7 101.5 100.9 104 102.5 2.5 1.6 7.4 4 11 5.2 6.1 2 7.1 2 17 0.9 5.8-0.7 13-2.2 16-3.3 3-1.1 6.6-2.2 8-2.5 1.6-0.3 3 0.1 3.7 1.1 1 1.3 1 2.1 0.1 3.8-0.7 1.3-1.3 3-1.3 3.8-0.1 0.8-1.1 3.1-2.3 5-1.2 1.9-4 5.3-6.2 7.5-2.7 2.7-4.3 5.3-4.8 8-0.5 2.2-0.6 6.7-0.2 10 0.4 3.6 1.5 7.3 2.8 9.2 1.2 1.8 2.2 3.7 2.2 4.3 0 0.5 0.3 1 0.7 1 0.5-0.1 2.4 1.2 4.4 2.7 2 1.5 5.8 5.7 8.5 9.2 2.7 3.5 6.1 7.1 7.7 8 1.5 0.9 2.7 1.9 2.7 2.3 0 0.5 2.8 3.4 6.2 6.5 3.4 3.2 8.9 8.5 12.3 11.8 3.3 3.3 7.4 6.6 9 7.3 1.7 0.7 4.6 3.5 6.5 6.4 1.9 2.8 6.1 7.4 9.3 10.2 3.2 2.8 6 6 6.3 7.1 0.2 1.1 2.7 3.7 5.4 5.7 2.8 2.1 5 4.1 5 4.5-0.1 0.5 3.4 4.5 7.7 9.1 4.3 4.5 8.4 8.2 9 8.2 0.7 0 5.6 4.4 10.8 9.7 5.2 5.4 9.5 10.2 9.5 10.8-0.1 0.5 1.4 2.2 3.2 3.6 1.8 1.4 5.5 4.8 8.3 7.5 2.7 2.7 8.6 8.9 13 13.7 4.4 4.8 8.8 9 9.7 9.2 1 0.3 2.8 2.2 4 4.2 1.4 2.2 3.7 4.2 5.8 5.1 1.9 0.8 6 3.8 9 6.7 3 2.9 7.3 7.2 9.5 9.5 2.2 2.2 7 7.1 10.7 10.8 3.6 3.7 7.2 8.2 8 10 0.9 2.2 3.4 4.6 7.8 7.5 4 2.6 7.1 5.4 8 7.4 0.8 1.8 3.1 4.5 5 6.1 1.9 1.6 4.8 3.6 6.5 4.4 1.6 0.9 4.1 3 5.5 4.8 1.4 1.8 3.6 4.3 4.9 5.4 1.3 1.2 4.7 4.5 7.5 7.5 2.8 2.9 7.3 7.6 10.1 10.5 4.6 4.8 5.3 5.1 11.2 5.8 4.5 0.6 7.2 0.4 9.5-0.6 1.8-0.7 5.4-3.2 8-5.5 2.7-2.2 4.8-4.7 4.8-5.4 0-0.6 1-2.2 2.3-3.5 1.2-1.2 2.6-2.3 3.2-2.3 0.5 0 1.8-0.7 2.8-1.7 1-0.9 1.8-2.5 1.7-3.5 0-0.9 1.5-2.6 3.2-3.7 1.8-1.1 4.2-3.3 5.3-5 1.1-1.6 2.6-3 3.2-3 0.7 0 1.5-0.9 1.8-2 0.3-1.1 3.1-4.5 6.2-7.5 3.2-3.1 6.5-5.5 7.3-5.5 0.8 0 3.7-2.4 6.5-5.4 2.7-2.9 5.7-6.3 6.5-7.5 0.8-1.2 1.9-2.1 2.5-2.1 0.5 0.1 1.9-1.1 3-2.6 1.1-1.5 3.1-3.6 4.4-4.8 1.3-1.2 4.7-4.1 7.6-6.6 2.8-2.5 8.5-8.3 12.7-13 4.2-4.7 9.2-9.9 11.3-11.5 2.1-1.7 4.5-3.8 5.4-4.8 0.9-1 2.4-2.6 3.4-3.5 1-1 4.5-4.4 7.7-7.7 3.2-3.3 10.9-11 17-17 6.2-6.1 12.4-12.3 13.9-14 1.4-1.6 6.7-7.3 11.8-12.5 5-5.2 10.4-10.7 12-12.2 1.5-1.5 15.4-15.4 30.9-31 15.4-15.6 31.1-31.2 34.7-34.8 3.7-3.6 6.7-7 6.7-7.5 0-0.6 1.7-2.9 3.8-5.3 2-2.4 4.4-4.4 5.3-4.5 0.9-0.1 2.3-0.9 3.3-1.7 0.9-0.8 1.7-2 1.6-2.5 0-0.6 1.3-2.4 3-4 2.9-2.8 3-3.5 3-10.5 0-7-0.2-7.7-3-10.3-1.6-1.5-3-3.2-3-3.7 0-0.6-0.7-1-1.5-1-0.8 0-8.6-7.1-17.3-15.8-8.6-8.7-17.3-17.2-19.2-18.8-1.9-1.7-6.9-6.8-11.1-11.4-4.2-4.7-12.6-13.5-18.7-19.5-6-6.1-12.7-12.6-14.8-14.6-2.2-2-6.9-6.8-10.7-10.8-3.7-3.9-7-7.1-7.5-7.1-0.4-0.1-2.4-2-4.5-4.3-2.1-2.3-3.7-4.7-3.7-5.2 0-0.6-4.1-4.9-9-9.8-5-4.8-9-9-9-9.5 0-0.4-2-2.1-4.3-3.9-2.3-1.7-5.2-4-6.4-5-1.2-1-2.2-2.1-2.3-2.6 0-0.4-1.8-2.5-4-4.7-2.2-2.2-4.5-4-5-4-0.6 0-3.9-3-7.5-6.8-3.6-3.7-6.5-7-6.5-7.5 0-0.4-0.6-0.7-1.3-0.7-0.6-0.1-2.6-1.5-4.3-3.3-1.7-1.8-3.4-4.1-3.7-5.2-0.4-1.1-3.2-4.5-6.3-7.5-3.1-3-8.1-8.1-11.2-11.3-3.2-3.2-7.7-7.3-10.2-9-2.5-1.7-5.3-4-6.4-5.1-1-1.2-2.5-3.1-3.2-4.4-0.8-1.2-2-2.2-2.7-2.3-0.6 0-2.8-2-4.7-4.4-1.9-2.4-4.5-5.7-5.8-7.2-1.2-1.5-3-4.3-4-6.2-0.9-1.8-2.5-4.7-3.4-6.5-0.9-1.7-1.7-3.4-1.8-3.9 0-0.4 307.8-0.7 1368-0.7v1333l-1231.2-0.5-2.4-6.5c-1.3-3.6-3.5-7.7-4.9-9.3-1.4-1.5-2.5-3-2.5-3.5 0-0.4-1.1-1.4-2.5-2.2-1.4-0.8-2.5-1.8-2.5-2.3 0-0.4-0.8-1.5-1.8-2.5-0.9-1-2.9-3.4-4.5-5.5-1.5-2-2.7-4.2-2.7-4.7 0-0.6-0.5-1-1-1-0.6 0-1-0.6-1-1.3 0.1-0.6-0.7-1.9-1.6-2.7-1-0.8-3-3.3-4.6-5.5-1.6-2.2-7.7-8.4-13.6-13.8-5.9-5.3-11.2-9.7-11.7-9.7-0.6 0-2.1-1.1-3.5-2.5-1.4-1.4-3.6-2.5-5-2.5-2 0-2.2-0.2-1-1 1.3-0.8 1.2-1-0.3-1-0.9 0-4.2-2.6-7.2-5.8-3-3.1-6.4-6.6-7.6-7.7-1.2-1.1-3.1-3-4.3-4.3-1.1-1.3-7.3-7.5-13.6-13.9-6.3-6.3-13.2-12.5-15.3-13.6-2-1.2-3.7-2.5-3.7-3 0-0.4-3.9-4.7-8.8-9.6-4.8-4.9-10.5-11.3-12.7-14.1-2.2-2.9-5.2-5.9-6.6-6.8-1.5-1-4.6-3.6-7-5.8-2.4-2.3-5.4-5.3-6.7-6.8-1.2-1.4-3-2.6-3.9-2.6-0.9 0-1.3-0.3-1-0.8 0.4-0.4-0.3-1.7-1.5-3-2-2-3.3-2.2-18.8-2.2l-4.8 5c-2.6 2.7-5.3 4.9-6 5-0.7 0-1.2-1.2-1.2-3 0-2.1-0.4-2.8-1.2-2.3-0.9 0.6-1 0.3-0.4-1.2 0.4-1.1 1.1-7.2 1.4-13.5 0.3-7.4 0.1-13.8-0.8-18-0.7-4-2.5-8.4-4.5-11.5-1.8-2.8-4.1-5.9-5.1-7.1-1.1-1.1-2.9-2.6-4.2-3.2-1.2-0.7-2.2-2-2.2-3 0-0.9 0.5-2.4 1-3.2 0.9-1.3 1.5-1 3.8 1.7 1.5 1.7 5.4 4.6 8.7 6.3 3.3 1.7 7.1 4.5 8.5 6.1 1.6 1.9 4.1 3.4 7 4.1 2.5 0.6 5.4 1.2 6.5 1.3 1.1 0.2 2.1 0.4 2.2 0.4 0.2 0.1 0.6 0.1 1 0.1 0.5 0 0.8-0.5 0.8-1 0-0.6 0.4-1 1-1.1 0.5-0.1 1.9-0.6 3-1.1 1.1-0.6 3.3-1.1 4.8-1.2 1.5-0.1 3.1-0.6 3.5-1.2 0.4-0.6 2.4-1.6 4.4-2.3 2.9-0.8 4.3-2.1 5.8-5.1 1.1-2.2 2.6-4 3.2-4 0.7 0 2.6-1.4 4.2-3 1.6-1.7 3.4-3 4-3 0.6 0 2.9-1.6 5.1-3.7 2.2-2.1 6.7-6.4 10-9.5 3.3-3.2 7.3-7.4 9-9.4 1.6-2.1 3.8-5 4.8-6.6 0.9-1.5 2.8-3.3 4.2-3.8 1.4-0.6 2.5-1.6 2.5-2.3 0-0.6 2.3-3.2 5-5.7 2.8-2.5 5.3-4.3 5.5-4 0.3 0.3 0.5-0.3 0.5-1.3 0-0.9 0.4-1.7 1-1.7 0.5 0 1.8-0.8 2.7-1.8 1-0.9 3.4-2.8 5.3-4.2 1.9-1.4 5-3.8 6.9-5.5 1.8-1.6 5.3-5 7.7-7.5 2.4-2.5 4.4-5.1 4.4-5.8 0-0.6 0.3-1.2 0.7-1.2 0.5 0.1 6.5-5.6 13.5-12.5 7.1-6.9 12.8-12.8 12.8-13.3 0-0.4 3.4-4.3 7.5-8.7 4.1-4.4 8.1-8.7 8.9-9.5 0.8-0.8 4.2-4 7.5-7 3.4-3 6.1-6 6.1-6.5 0-0.6 2-2.4 4.5-4 2.4-1.7 6.1-5.2 8.2-7.9 2.1-2.7 5.7-6.3 7.9-8 2.3-1.7 5.4-4.7 7-6.6 1.6-2 7.2-7.9 12.4-13.1 5.2-5.3 11.2-10.8 13.2-12.2 2.1-1.5 3.7-3 3.6-3.5 0-0.4 1.4-1.5 3.3-2.4 1.9-0.9 6.5-5.4 10.4-10 3.8-4.6 8.8-10.7 11-13.5 2.2-2.9 4.8-5.5 5.7-5.8 1-0.3 3.3-2.4 5.1-4.8 1.8-2.3 3.8-5.8 4.5-7.7 0.6-1.9 1.2-4.5 1.2-5.8 0-1.2 1.1-3.9 2.5-6 2-3 2.4-4.4 1.8-7.7-0.3-2.2-1.4-5.1-2.3-6.5-1-1.4-2-3.4-2.3-4.5-0.3-1.1-1.3-2.7-2.2-3.5-0.9-0.8-1.6-2.2-1.5-3 0-0.8-0.8-2.7-2-4.3-1.1-1.5-2.5-2.5-3-2.2-0.6 0.3-2.7-1.4-4.8-3.7-2-2.3-6.4-6.8-9.7-10-3.3-3.2-6.6-5.8-7.3-5.8-0.6 0-1.2-0.3-1.2-0.8 0.1-0.4-5-5.8-11.2-12-6.2-6.2-12.5-12.5-14.1-14-1.5-1.5-2.7-2.9-2.7-3.2 0.1-0.3-2.3-3-5.3-6-2.9-3-7.7-7.5-10.6-10-3-2.5-7-6.1-9-8-2-2-6-6.3-8.9-9.5-2.9-3.3-5.2-6.8-5.2-7.8 0-0.9-1-2.4-2.3-3.2-1.2-0.9-2.7-1.4-3.3-1.3-0.6 0.2-2.3-0.8-3.8-2.2-1.6-1.4-3.8-3.6-4.9-4.9-1.2-1.3-4.6-4.7-7.5-7.5-2.9-2.8-5.2-5.6-5.2-6.1 0-0.6-0.9-1.6-2-2.3-1.1-0.6-2-1.8-2-2.5 0-0.6-1.2-2.5-2.7-4-1.6-1.5-3.3-2.6-3.9-2.5-0.6 0.2-5.1-3.7-10-8.7-4.9-4.9-8.9-9.4-8.9-10-0.1-0.5-0.6-0.9-1.3-0.8-0.7 0.2-1.4-0.6-1.7-1.7-0.3-1.1-1-2-1.5-2-0.6 0-1.7-1.5-2.4-3.3-0.8-1.7-2.8-3.8-4.3-4.4-1.5-0.7-3.8-2.3-5-3.5-1.2-1.3-2.8-2.9-3.5-3.6-0.7-0.8-3.1-3-5.2-5-2.2-2.1-4.6-4.5-5.5-5.5-0.9-1-7.2-7.6-14.1-14.6-6.9-6.9-13.7-13.4-15.3-14.4-1.5-0.9-2.6-2.3-2.4-3 0.2-0.6-1.1-2.5-2.8-4-1.6-1.5-3.8-2.8-4.8-2.7-1.1 0-1.9-1-2.2-2.8-0.2-1.5-1.4-3.6-2.6-4.7-1.2-1.1-2.8-2-3.8-2-0.9 0-1.6-0.7-1.6-1.5 0-0.8-0.6-1.6-1.3-1.8-0.6-0.1-1.7-0.2-2.2-0.2-0.6 0-1.1-1-1.3-2.2-0.1-1.2-2.1-3.6-4.7-5.5-2.5-1.8-6.6-4.4-9.3-5.8-3.6-1.9-6.3-2.5-11.5-2.6-4 0-6.8 0.4-7 1-0.1 0.6-1 1.1-2 1.1-0.9-0.1-2.8 1.2-4.2 2.8-1.4 1.6-3.9 3.2-5.5 3.6-1.7 0.3-5.3 2.3-8 4.4-2.8 2-8.6 7.5-12.9 12.2-4.3 4.7-11.2 12-15.2 16.2-4.1 4.3-7.4 8.5-7.4 9.3 0 0.8-0.6 1.5-1.3 1.5-0.6 0-3.2 2-5.7 4.4-2.5 2.5-5.8 5.8-7.3 7.3-1.6 1.5-4 4.5-5.3 6.5-1.3 2.1-3.6 4.4-5.2 5-1.5 0.7-3.3 1.8-4 2.5-0.6 0.7-1.2 1.6-1.2 2 0.1 0.5-2.1 3.1-4.7 6-2.6 2.9-5.4 5.2-6.1 5.3-0.6 0-3.1 1.6-5.5 3.6-2.3 2-5.2 5.2-6.5 7-1.2 1.9-3.6 4.1-5.2 4.9-1.7 0.8-4.4 3-6 4.7-1.7 1.8-4 4.8-5 6.5-1.1 1.8-3.7 4.4-5.8 5.7-2 1.3-4.9 3.4-6.3 4.7-1.4 1.3-3.3 3.9-4.2 5.6-0.9 1.8-3.2 4-5 5-1.7 0.9-4.7 3-6.4 4.7-1.8 1.7-3.9 4.4-4.5 5.9-0.7 1.6-2.9 3.8-4.8 4.9-1.9 1.1-4.1 2.9-4.8 3.9-0.6 1.1-1.9 1.9-2.7 1.9-0.8 0-2.7 1.8-4.3 4.1-1.5 2.3-4.2 5-6 6-1.7 1-3.2 2.3-3.2 2.9 0 0.5-1.2 1.6-2.6 2.2-1.5 0.7-3.1 2.3-3.8 3.5-0.6 1.2-4.2 5.4-8 9.5-3.8 4-7.3 8.3-7.7 9.5-0.5 1.3-2.1 3.1-3.7 4-1.5 0.9-3.6 2.4-4.7 3.4-1.1 0.9-3.5 3.2-5.3 5.1-1.8 1.8-3.8 3.9-4.5 4.5-0.7 0.7-4.1 4.1-7.7 7.6-3.6 3.5-7.7 7.6-9.2 9.3-1.5 1.6-4 4-5.5 5.4-1.5 1.4-5.2 5.2-8 8.5-3.5 3.9-5.5 7.3-6 9.9-0.5 2.1-1.6 4.5-2.6 5.5-1 0.9-1.8 2-1.8 2.6 0.1 0.5-0.9 2-2.2 3.3-2.1 2.2-2.2 2.5-0.8 8 0.8 3.1 1.8 6.5 2.3 7.4 0.4 1 1.1 1.7 1.5 1.6 0.5-0.1 3.1 2 5.9 4.7 2.8 2.8 6.1 7.1 7.3 9.7 1.1 2.7 2.8 4.8 3.6 4.8 0.8 0 1.5 0.6 1.5 1.2 0 0.7 1.9 3 4.3 5.1 2.3 2.2 5.3 4.6 6.7 5.5 1.4 1 3.3 2.4 4.3 3.2 0.9 0.8 1.7 1.8 1.7 2.2 0 0.5 2.5 3.3 5.5 6.3 3 3 5.5 5.9 5.5 6.5 0 0.5 0.4 1 1 1 0.5 0 1.8 1.6 2.7 3.5 1 2 2.2 3.6 2.8 3.6 0.5 0 1.7 0.8 2.5 1.7 0.8 1 3.4 3.3 5.8 5.2 3.1 2.5 4 3.7 3 4.2-0.9 0.6-0.8 0.8 0.4 0.8 1 0 2 0.7 2.3 1.5 0.3 0.8 1.2 1.5 2 1.5 0.8 0 1.9 0.9 2.5 2 0.7 1.4 0.7 2.1-0.3 2.5-0.6 0.2-2 0.4-2.9 0.2-1-0.1-2.6-1.8-3.5-3.7-1.2-2.2-2.6-3.6-4.1-3.8-1.2-0.1-2-0.7-1.8-1.5 0.3-0.6-0.1-1.8-0.7-2.5-0.7-0.7-1.8-1.2-2.5-1.2-0.6 0-2.1-0.8-3.2-1.8-1.1-0.9-2-2.4-2-3.2 0.1-0.8-2.1-3.6-4.7-6.2-2.6-2.7-5.4-4.8-6.1-4.8-0.6 0-1.2-0.5-1.2-1 0-0.6-0.8-1.2-1.8-1.5-0.9-0.3-2.8-2.2-4.2-4.2-1.4-2-3.6-4.9-5-6.3-1.4-1.4-3.7-3.3-5.2-4.3-1.6-0.9-2.8-2.3-2.8-3 0-0.6-1.6-2.6-3.7-4.2-2-1.7-4.6-3.9-5.8-5-1.1-1.1-2.8-3.2-3.8-4.8-0.9-1.5-2.2-2.7-2.7-2.7-0.6 0-2.5-0.6-4.3-1.4-1.7-0.8-6.1-2.2-9.7-3.1-4.8-1.3-9-1.6-16-1.3-7.3 0.4-10.6 1-14 2.8-3.2 1.6-28.9 26.7-88.5 86.4-46.2 46.2-85.2 85.4-86.6 87.1-1.5 1.6-9.5 9.5-17.8 17.5-8.3 8-15.2 15.4-15.3 16.5-0.2 1.1-1.8 2.7-3.8 3.7-1.9 0.9-11.8 10.1-22 20.5-15.5 15.8-18.8 19.6-20.3 23.8-1.2 3.6-1.7 8.1-1.7 16 0 9.9 0.2 11.5 2.7 16.5 2.2 4.6 15.5 18.3 78.1 81 41.5 41.5 77.1 77.7 79.2 80.5 2 2.7 4.5 5.7 5.4 6.5 1 0.8 2.4 2.7 4.6 7h-195v-215l8.2-1.1c4.6-0.6 9.7-1.8 11.5-2.7 1.8-1 124.2-122.5 272.1-270.2 169.9-169.7 269.6-270 270.9-272.5 1.2-2.2 2.7-6.9 3.3-10.5 0.8-4.6 0.9-8.4 0.2-13-0.5-3.6-2-8.8-3.3-11.5-1.9-4.1-23.8-26.6-124.8-127.8-91.6-91.7-123.7-123.3-127.1-124.9-3.1-1.5-7.1-2.3-12.5-2.6-4.4-0.3-10.5 0.1-13.5 0.8-3 0.6-7.5 2.4-10 3.8-2.6 1.5-31.6 29.6-69.9 67.6-36 35.8-66.9 66.4-68.6 68.1-1.7 1.6-5.2 4.7-7.8 6.7-2.6 2.1-5.2 3.6-5.7 3.3q-1-0.5 0-3.3c0.6-1.5 0.8-3.4 0.5-4.2-0.4-1 22-24.1 72.2-74.2 62.8-62.7 73.1-73.3 74.6-77.5 1.6-3.9 1.8-6.8 1.5-15.8-0.3-9.1-0.8-11.9-2.8-16-2-4-24.8-27.3-113.5-116-61.1-61.1-113.2-113.8-115.8-117.3-2.6-3.4-4.7-6.4-4.7-6.7 0-0.3 7.8-0.4 34.3 0zm459-0.5h13.4c13.1 0 13.3 0 13.3 2.2 0 1.3-0.5 3.9-1.1 5.8-0.7 1.9-1.9 4.3-2.8 5.4-0.9 1-1.5 2.1-1.4 2.5 0.1 0.3-1.1 2.1-2.7 3.8-1.7 1.8-3.3 3.3-3.8 3.3-0.4-0.1-2.5 1.9-4.7 4.4-2.2 2.4-5.1 5.8-6.5 7.4-1.4 1.6-3.1 3.2-3.9 3.3-0.8 0.2-3.4 2.6-5.8 5.4-2.4 2.7-5.2 5.9-6.2 7-1.1 1.1-5.9 5.6-10.8 10.1-4.8 4.4-11.2 10.2-14.1 12.7-2.8 2.6-5 5-4.7 5.4 0.2 0.5-0.6 1.8-1.8 3-1.2 1.2-3.3 2.4-4.7 2.7-1.4 0.4-4.8 2.5-7.5 4.7-3.6 2.9-5.2 3.6-5.7 2.7-0.5-1-0.8-0.9-1.2 0.4-0.4 1-0.8 2.5-1.1 3.3-0.3 1-1.9 1.5-5 1.5-3.8 0-5.1 0.6-8.5 3.7-2.2 2.1-4 4.4-4 5 0 0.7-1 1.4-2.2 1.5-1.5 0.2-2.5 1.2-3 3.3-0.5 1.6-2 3.7-3.3 4.5-1.3 0.8-2.3 1.7-2.2 2 0.1 0.3-0.5 2-1.3 3.8-0.9 1.9-2.5 3.5-4 3.9-1.4 0.3-3.2 0.7-4 0.7-0.8 0.1-2 1.1-2.5 2.4-0.6 1.2-1.5 2.2-2 2.2-0.6 0-1.8 0.8-2.8 1.8-1 0.9-1.8 2.5-1.7 3.4 0 1-2.5 4.3-5.6 7.3-3.1 3-6 5.5-6.5 5.5-0.5 0-0.7 0.4-0.4 1 0.3 0.5-2.4 3.9-6 7.5-3.6 3.6-6.6 6.3-6.8 6-0.1-0.3-2.3 1.7-5 4.5-3.4 3.7-5.4 5-7.5 5-2.2 0-2.8 0.5-3.5 3.2-0.5 1.8-0.9 4.7-1 6.4-0.2 2.3-1.4 4.4-5 7.8-2.6 2.5-5.9 5.1-7.5 5.7-1.5 0.7-3.9 1.1-5.5 1-1.8-0.1-2.5 0.3-2.1 1.1 0.3 0.7 0 2.6-0.7 4.1-1.2 2.4-2 2.8-5.9 2.8-4.3 0-4.4-0.1-2.9-1.8 0.9-1 2.6-3.6 3.7-5.8 1.1-2.2 5.8-7.9 10.4-12.6 4.6-4.8 9.3-8.9 10.5-9.3 1.3-0.3 3.2-1.7 4.3-3.1 1.1-1.4 2.3-2.5 2.7-2.5 0.5 0 1.7-1.5 2.9-3.3 1.1-1.7 2.9-4.6 3.9-6.2 1-1.7 3.2-4.7 4.9-6.9 1.7-2.1 5.3-6.2 8.1-9 2.7-2.9 7.2-6.9 10-9.1 2.7-2.1 9.3-8.2 14.5-13.6 5.6-5.7 11.1-10.4 13.2-11.3 2.1-0.9 4.1-2.4 4.5-3.5 0.5-1 2.6-3.8 4.8-6.2 2.3-2.4 5.3-5.2 6.8-6.2 1.5-0.9 2.7-2.2 2.7-2.7 0-0.6 2.9-5.4 6.4-10.8 5.4-8.1 11.3-14.4 63.6-66.2zm65.2 0c6.3 0 6.5 0.1 8.2 3.2 0.9 1.8 2.5 4.2 3.5 5.3 1 1.1 2 2.7 2.3 3.5 0.2 0.8 5.8 7 12.4 13.7 6.7 6.8 12.1 12.7 12.1 13.3 0 0.5 1.8 2 3.9 3.2 2.2 1.3 4.2 3.2 4.5 4.3 0.3 1.1 0.7 1.8 1.1 1.5 0.3-0.3 4.9 4 10.3 9.6 5.3 5.6 13.3 14.1 17.7 18.9 4.4 4.9 10.2 10.9 13 13.4 2.7 2.5 12.2 11.7 21 20.5 8.8 8.9 20.1 20 25 24.8 4.9 4.7 12.1 11.9 16 16 3.8 4 8.6 8.7 10.5 10.4 1.9 1.7 11.3 10.9 20.8 20.5 9.5 9.6 22.4 21.9 28.7 27.4 6.2 5.5 11.4 10.4 11.4 11 0 0.5 4.7 5.5 10.3 11.1 5.7 5.5 11.1 11.4 12.1 13 1.3 2 1.7 3.7 1.1 5.4-0.4 1.4-0.6 3.4-0.5 4.5 0.1 1.1-1.5 4.2-3.6 7-2.2 2.7-6.6 7.2-9.9 9.9-3.2 2.6-7.7 6.9-9.9 9.5-2.2 2.6-6.1 6.9-8.7 9.7-2.6 2.7-8.6 9.2-13.5 14.3-4.8 5.2-14 14.5-20.3 20.5-6.3 6.1-14.9 14.5-19 18.6-4.1 4.2-9.3 9.6-11.6 12-2.2 2.5-7.2 7.2-11 10.5-3.8 3.3-7.3 6.7-7.9 7.5-0.5 0.8-1.9 2.4-3 3.5-1.2 1.1-7.7 7.4-14.7 14-6.9 6.6-13.2 13.3-14 15-0.9 1.6-4 4.8-6.9 7-3 2.1-6.5 5.3-7.9 7-1.4 1.6-4.1 4.6-6 6.5-1.9 2-4.9 4.7-6.5 6-1.7 1.4-4.2 4.1-5.5 6-1.4 1.9-6.8 7.7-12 12.8-5.2 5.2-11.3 10.6-13.4 12.1-2.2 1.4-4.9 4-6 5.8-1.2 1.7-4.8 5.3-8.1 8-3.2 2.6-7.3 6.6-9 8.8-1.6 2.2-4.6 5.4-6.5 7.1-1.9 1.8-4.9 3.4-6.5 3.7-1.7 0.3-3.5 0.6-4 0.7-0.6 0.1-2.1 0.2-3.5 0.1-1.4 0-3.4-0.9-4.6-1.8-1.1-1-3.8-2.7-5.9-3.8-2.9-1.4-4.6-3.3-6.1-6.5-1.2-2.5-4.2-6.2-6.8-8.3-2.5-2-4.6-4.5-4.6-5.5-0.1-0.9-2.2-3.8-4.8-6.4-2.6-2.7-5.6-4.8-6.7-4.8-1.1 0-3.5-1.2-5.3-2.7-1.8-1.6-3.3-3.3-3.2-3.8 0-0.6-1.2-2.3-2.8-3.8-1.5-1.6-4.3-3.9-6.2-5.1-1.9-1.2-4.5-3.7-5.8-5.6-1.3-1.9-3.7-4-5.5-4.6-2.1-0.8-5.1-3.6-8.7-8.2-3-3.9-7.5-8.8-9.9-10.9-2.4-2.1-5.1-5.2-5.9-6.8-0.8-1.7-2.9-4.7-4.6-6.9-1.7-2.1-4.5-4.4-6.1-5-1.7-0.7-4.4-2.9-6-5-1.7-2.1-4.5-5.2-6.4-6.9-1.9-1.8-6.7-6.4-10.7-10.2-4-3.9-9.4-9-12-11.5-2.5-2.5-5.8-6.4-7.3-8.6-1.4-2.3-4-4.9-5.6-5.8-1.7-0.8-3.6-2.7-4.3-4.1-0.7-1.4-2.9-4.4-5.1-6.8-2.1-2.3-5.1-4.8-6.7-5.5-1.6-0.6-3.8-2.7-4.9-4.5-1-1.7-2.3-3.7-2.7-4.2-0.5-0.6-1.8-2.3-3.1-3.9-1.2-1.6-3.7-3.5-5.5-4.3-1.8-0.7-4.3-3-5.6-5.1-1.3-2-3.7-4.9-5.3-6.3-1.5-1.5-3.8-3-5.1-3.3-1.2-0.3-3.1-2.3-4.1-4.4-1.1-2-4-5.4-6.5-7.5-2.6-2-5.3-3.7-6.1-3.7-0.8 0-2.4-1.2-3.6-2.8-1.1-1.5-2.2-3.4-2.5-4.2-0.2-0.8-2.2-2.5-4.4-3.8-2.2-1.2-5.8-4.6-7.9-7.5-2.1-2.8-4.4-7-4.9-9.2-0.6-2.2-1.3-6-1.4-8.4-0.3-3.9 0-4.6 3.2-7.2 1.9-1.6 4.2-2.9 5-2.9 0.8-0.1 3.6-2.4 6.2-5.3 2.6-2.9 4.7-5.8 4.7-6.5 0.1-0.6 2.4-3.1 5.1-5.5 2.8-2.3 4.8-4.4 4.5-4.7-0.3-0.3-0.1-1.1 0.5-1.8 0.5-0.6 1.4-1 2-0.7 0.5 0.3 4.8-3.4 9.5-8.3 4.8-4.8 9.6-10.1 10.8-11.9 1.2-1.8 3.2-3.5 4.4-3.8 1.7-0.4 2.2-1 1.8-2.5-0.4-1.5 0.5-2.6 3.7-4.6 2.4-1.4 5.6-3.9 7.3-5.6 1.6-1.6 5.8-5.6 9.2-8.9 3.5-3.2 6.3-6.4 6.3-6.9 0-0.6 1-1.3 2.2-1.7 1.3-0.4 4.2-2.4 6.5-4.5 2.4-2.1 4.6-3.8 5-3.8 0.4 0 1.6-1.5 2.5-3.5 1-1.9 2.6-3.7 3.5-4 1-0.2 2.5-1.7 3.3-3.2 0.8-1.5 1.9-3.3 2.5-3.9 0.5-0.7 2.6-3.1 4.5-5.4 1.9-2.4 6.5-7.3 10.1-10.9 3.6-3.6 8.4-7.7 10.7-9.1 2.3-1.4 4.9-4.1 5.8-6 1-1.9 3.9-5.6 6.6-8.3 2.6-2.6 4.8-5.4 4.8-6.2 0-0.8 0.5-1.8 1.2-2.3 0.7-0.4 1.8-1.6 2.4-2.7 0.6-1.1 2.2-2.5 3.5-3.1 1.3-0.7 4-2.6 5.9-4.3 1.9-1.7 3.1-3.1 2.7-3.1-0.4 0 1.1-1.7 3.4-3.8 2.9-2.7 4.2-3.3 4.7-2.4 0.6 1.1 0.9 1.1 1.8 0 0.6-0.7 1.4-2.5 1.7-4.1 0.5-2 1.6-3 4.4-3.8 2.8-0.8 3.4-1.3 2.3-1.9-1.3-0.8-1.3-1.4 0.5-5 1.1-2.2 2.4-4.1 3-4.2 0.5 0 1.5 0 2.2 0.1 0.7 0 1.5-0.8 1.8-1.9 0.3-1.1 0.8-1.8 1.2-1.5 0.4 0.2 1.7-0.5 2.8-1.7 1.4-1.4 1.6-2.2 0.7-2.4-0.7-0.3 0.5-2.2 3-4.8 2.4-2.4 5.4-4.5 6.7-4.7 1.5-0.3 3.5-1.8 4.9-3.9 1.3-1.9 3.7-4.3 5.3-5.3 1.6-0.9 3.9-2.6 5.1-3.7 1.3-1.2 3-2.7 3.8-3.4 0.8-0.7 2.8-2.2 4.3-3.2 2.4-1.6 2.6-2 1.3-2.7-1.4-0.6-1.4-1.1 0.5-4.5 1.2-2 2.8-4.7 3.6-6 1.1-1.9 2.2-2.2 7.8-2.2zm-556 514c1.3 0 1.3 0.5 0.3 3.2-0.7 1.8-5.3 7.3-10.3 12.1-5 4.9-11.3 10-14 11.4-2.8 1.4-6.3 3.8-7.8 5.4-1.5 1.6-3.4 2.9-4.2 2.9-1.2 0-1.5-1.6-1.5-8 0-5.5 0.4-8.1 1.2-8.4 0.7-0.2 4.2-0.7 7.8-1.2 4.6-0.5 6.8-1.2 7.7-2.6 0.7-1 1.8-1.5 2.5-1.2 0.7 0.3 2.6-0.7 4.3-2.4 1.6-1.6 4.3-3.6 6-4.5 1.6-0.8 3.8-2.6 4.8-4.1 0.9-1.4 2.4-2.6 3.2-2.6zm554.7 673.1c1-0.1 4.6 2.5 8 5.6 3.4 3.2 8 7.6 10.2 9.9 2.3 2.3 6.2 5.9 8.7 8 2.5 2.1 5.5 4.7 6.5 5.6 1 0.9 5.5 5.6 9.9 10.4 4.4 4.8 12.5 13.3 18 18.8 5.5 5.6 12.7 12.6 16 15.6 3.3 3 13.9 13.6 23.5 23.5 9.7 9.9 21.3 21.4 25.7 25.5 6.3 5.7 9 9.2 11.7 14.5 2 3.8 3.6 7.3 3.6 7.7 0 0.5-65.3 0.8-145 0.8-137.7 0-145-0.1-144.4-1.8 0.4-0.9 1.4-2.5 2.3-3.6 0.9-1 1.4-2 1.1-2.1-0.3-0.2 0.5-1.4 1.7-2.7 1.3-1.2 4.9-5.1 8-8.6 3.2-3.4 6.4-6.2 7.1-6.2 0.6 0 2.6-1.3 4.4-2.8 1.8-1.6 4-4.3 4.8-6.1 0.8-1.7 1.9-3.2 2.5-3.1 0.5 0 1.7-0.9 2.5-2 0.8-1.1 2-2 2.7-2 0.7 0 3.1-1.7 5.4-3.8 2.2-2 4.7-5.4 5.5-7.5 0.8-2 1.8-3.7 2.4-3.7 0.5 0 3.2-1.7 5.9-3.8 2.8-2 5.3-4.6 5.7-5.7 0.4-1.1 2-3.5 3.6-5.3 1.5-1.7 3.3-3.2 4-3.2 0.7 0 2.4-1.2 3.8-2.7 1.4-1.6 3.8-4.7 5.3-7.1 1.5-2.4 4.1-4.8 5.9-5.6 1.8-0.8 5.2-3.6 7.5-6.2 2.3-2.7 5.1-5.8 6.1-6.9 1-1.1 2.7-2.7 3.8-3.6 1-0.9 2.6-2.5 3.4-3.5 0.8-1.1 2.6-3.6 4-5.7 1.4-2.1 5.2-5.6 8.5-7.9 3.3-2.2 6.9-5.2 8-6.7 1.1-1.4 3.1-3.4 4.4-4.6 1.3-1.1 4.2-3.7 6.5-5.7 2.2-2 5.2-4.1 6.6-4.7 1.4-0.5 3.3-1 4.2-1zm-177.5 133.9c1.7 0 2.1 0.4 1.7 1.7-0.4 1-1.3 3.7-3.4 10.3h-12l2.7-3.6c1.5-2 4.1-4.7 5.8-6 1.6-1.3 4-2.4 5.2-2.4z"/><path class="b" d="m295.7 299c1.8 0 5.9 1.2 9 2.7 5 2.4 20.9 17.9 121.8 118.8 96.9 96.9 116.5 117 119.2 122 2.2 4.2 3.2 7.4 3.3 10.5 0 2.9-1 6.5-2.7 10-2.3 4.7-41.6 44.4-527.8 530.8l-8.3 3.1c-4.5 1.7-8.4 3.1-8.7 3.1-0.3 0-0.4-118.2 0-525.3l7.2-3.1c7.1-3.1 8.3-4.2 139-134.7 120.3-120 132.4-131.8 138.3-134.7 3.5-1.8 7.9-3.2 9.7-3.2z"/><path class="c" d="m15.2 0.1c4.2-0.1 4.8 0.2 4.8 1.9 0 1.1 0.4 2 1 2 0.5 0 0.8 0.4 0.5 1-0.3 0.5-0.2 1 0.2 1 0.5 0 0.9 1 1 2.2 0.2 1.6-0.3 2.3-1.5 2.3-0.9 0-3.4-1.7-5.5-3.8-2-2-3.5-4.2-3.2-4.7 0.3-0.6-0.1-1.2-0.8-1.4-0.6-0.3 0.9-0.5 3.5-0.5zm69-0.1h429.8l-4.3 8.5c-4.2 8.4-4.9 9.2-73.7 78.3-38.2 38.3-79.9 80.3-92.5 93.2-12.7 12.9-25.3 25-28 26.8-2.8 1.8-7.5 3.7-10.5 4.3-3 0.6-7.1 0.8-9 0.5-1.9-0.3-6-1.8-9-3.2-4.7-2.3-20.1-17.3-100.3-97.3-66.7-66.6-95.5-95.9-97.2-99.1-1.2-2.5-3-6.2-3.8-8.3zm210.8 286c2.5 0 6.3 0.6 8.5 1.4 2.2 0.7 5.8 2.5 8 4 2.2 1.5 44.5 43.2 94 92.6 49.5 49.4 103.6 103.5 120.1 120.2 27 27.2 30.5 31.1 33.5 37.3 2.5 5.2 3.4 8.4 3.4 12-0.1 3.6-1 7.1-3.4 12-3.2 6.8-13.5 17.2-269.2 272.8-146.2 146.2-267.6 266.9-269.6 268.2-2.1 1.4-6.7 3.4-10.3 4.5-3.5 1.1-7 2-7.7 2-0.9 0-1.3-1.9-1.3-12.5l17.5-6.6 262.6-262.7c223.7-223.7 263-263.5 265.2-268.2 1.8-3.5 2.7-7 2.7-10 0-3.1-1-6.3-3.2-10.5-2.7-5-22.4-25.1-119.3-122-100.9-100.8-116.8-116.3-121.7-118.7-3.2-1.5-7.2-2.8-9-2.8-1.8 0-6.2 1.5-9.8 3.2-5.9 2.9-17.9 14.6-138.3 134.8-72.5 72.3-133 132.1-134.5 132.7-1.5 0.6-4.8 2.1-12.2 5.3v-14l7.8-4.9c6.4-4.1 29.1-26.3 130.2-126.8 67.4-67.1 126.4-125.4 131-129.7 5.2-4.8 10.9-9 14.5-10.7 3.8-1.8 7.7-2.9 10.5-2.9zm96.1 1032c0.5 0 0.9 0.7 0.9 1.5 0 0.9-0.4 1.5-1 1.5-0.5 0-1 0.8-0.9 1.8 0 1-1.1 2.4-2.5 3.2-1.4 0.9-2.3 1.9-2 2.3 0.2 0.4-0.1 1.7-0.8 2.8q-1.3 2-4.5 2c-2.2 0-3.3-0.5-3.3-1.6 0-0.8 1.3-2.2 2.9-3.2 1.7-1 4.6-3.7 6.6-6 2-2.3 4.1-4.3 4.6-4.3zm-176.5 7c3.3 3 6.3 6.1 6.7 6.8 0.5 0.9-0.2 1.3-3 1.3-3.5 0-3.9-0.4-5.9-4.8-1.2-2.6-2.6-5.7-3-6.8-0.4-1.1 1.7 0.3 5.2 3.5z"/><path class="d" d="m2.8 0.2c1 0.2 2.5 3.2 4.1 8 2.1 6.2 3.2 8 5.6 9.4 1.6 0.9 54.2 52.8 116.9 115.3 78.7 78.5 114.4 114.8 115.7 117.6 1 2.2 1.8 5.3 1.8 7 0 1.6-0.5 4.2-1.2 5.8-0.7 1.5-42.3 43.8-92.4 94-50.2 50.1-91.3 91.6-91.3 92.2 0 0.5-2.1 3.1-4.7 5.8-2.7 2.6-5 4.5-5.3 4.2-0.3-0.3-8.2 7.3-17.5 16.9-9.4 9.6-19.7 19.4-23 21.7-3.3 2.3-7 4.6-10.5 5.9l0.1-252.1c0.1-230.4 0.2-252 1.7-251.7zm285.4 893.9c1.1 1.3 1.7 1.4 4.3 0.3 1.6-0.7 4.6-1.3 6.5-1.3 1.9-0.1 5.3 0.8 7.5 1.9 2.6 1.3 43.9 41.9 121.2 119.2 108.1 108.2 117.2 117.6 118.3 121.8 0.9 3.5 0.9 5.5-0.1 9-1.1 4-5 8.3-37.3 40.6-19.9 19.8-37.3 36.8-38.8 37.7-1.6 0.9-2.8 2.1-2.8 2.7 0 0.5-20.4 21.4-90.7 91.5l-5.3 15.5-143.5-0.5-1-15.5-7-6.5c-3.9-3.6-7.2-6.3-7.5-6-0.3 0.3-1.4-0.4-2.5-1.6-1.1-1.1-2.6-2-3.3-1.9-0.6 0-34.9-33.6-76.1-74.8-50.6-50.5-75.5-76.1-77-79-1.1-2.3-2.1-5.4-2.1-7 0-1.5 0.9-4.5 1.9-6.7 1.3-2.7 14-16.1 38.2-40 19.9-19.8 43-42.8 51.2-51 8.2-8.3 39-39.2 68.5-68.8 29.5-29.5 53-53.7 52.2-53.7-0.8 0.1-2-0.5-2.6-1.2-0.8-1-0.6-1.7 0.8-3.1 1.5-1.4 1.8-1.4 1.8-0.2 0 0.8 0.4 1.3 1 1 0.5-0.3 1 0.3 1 1.2 0 1.2 2.6-0.8 7.5-5.7 6.6-6.6 7.2-7.6 5.5-8.3-1.1-0.4-2.2-1-2.3-1.5-0.2-0.4 0.4-1.5 1.5-2.5 1.5-1.4 1.8-1.4 1.8-0.2 0 0.8 0.4 1.3 1 1 0.5-0.3 1 0.3 1 1.2 0 1.4 0.8 0.9 3.4-1.7 2.3-2.4 3.3-4.1 2.9-5.5-0.4-1.8-0.3-1.8 0.9-0.4z"/><path class="e" d="m35.5 0l4.5 6.3c2.5 3.4 54.7 56.4 116 117.7 89.1 89.1 112 112.5 114 116.5 2 4.1 2.5 6.9 2.8 16 0.3 9 0.1 11.9-1.5 15.8-1.5 4.2-11.8 14.8-74.6 77.5-50.2 50.1-72.6 73.2-72.2 74.2 0.3 0.8 0.1 2.7-0.5 4.2q-1 2.8 0 3.3c0.5 0.3 3.1-1.2 5.7-3.3 2.6-2 6.1-5.1 7.8-6.7 1.7-1.7 32.6-32.3 68.6-68.1 38.3-38 67.3-66.1 69.9-67.6 2.5-1.4 7-3.2 10-3.8 3-0.7 9.1-1.1 13.5-0.8 5.4 0.3 9.4 1.1 12.5 2.6 3.4 1.6 35.5 33.2 127.1 124.9 101 101.2 122.9 123.7 124.8 127.8 1.3 2.7 2.8 7.9 3.3 11.5 0.7 4.6 0.6 8.4-0.2 13-0.6 3.6-2.1 8.3-3.3 10.5-1.3 2.5-101 102.8-270.9 272.5-147.9 147.7-270.3 269.2-272.1 270.1-1.8 0.9-6.5 2.2-10.5 2.8-3.9 0.6-7.7 1.1-8.2 1.1-0.6 0-1-1-1-2.3 0-1.9 1-2.5 6.7-4.1 3.8-1 8.8-3 11.3-4.4 2.8-1.7 102.9-101 270.6-268.7 255.9-255.8 266.2-266.3 269.4-273 2.4-5 3.4-8.5 3.4-12 0.1-3.7-0.8-6.8-3.3-12-3.1-6.3-6.5-10.2-33.5-37.3-16.6-16.7-70.6-70.8-120.1-120.3-49.5-49.4-91.8-91.1-94-92.5-2.2-1.5-5.8-3.3-8-4.1-2.2-0.7-6-1.3-8.5-1.3-2.8 0-6.7 1.1-10.5 2.8-3.6 1.7-9.3 5.9-14.5 10.7-4.7 4.3-63.6 62.7-131 129.7-101.1 100.6-123.9 122.8-138 131.8v-6c0-5.6 0.2-6 2.5-6.5 1.4-0.3 2.9-1.4 3.5-2.5 0.5-1.1 3.6-3.3 6.7-4.9 3.6-1.8 9.3-6.3 14.8-11.8 5-4.8 9.6-10.3 10.3-12.1 1-2.7 1-3.2-0.3-3.2-0.8 0-2.3 1.2-3.3 2.6-0.9 1.5-3.1 3.3-4.7 4.1-1.7 0.9-4.4 2.9-6 4.5-1.7 1.7-3.6 2.7-4.3 2.4-0.6-0.3-1.8 0.2-2.5 1.2-0.8 1.4-3.1 2.1-7.7 2.6-3.6 0.5-7.1 1-7.8 1.2-0.9 0.3-1.2-1.6-1.2-7.1 0-6 0.3-7.5 1.5-7.5 0.8 0 3.2-0.9 5.2-1.9 2.1-1 7.1-5.2 11-9.2 4-4.1 10.4-10.6 14.2-14.4 3.8-3.9 7.5-7.5 8.1-8 0.7-0.6 4.3-4.2 8.1-8 3.8-3.9 6.9-7.3 6.9-7.8 0-0.4 0.4-0.7 1-0.7 0.5 0 4-3.2 7.7-7.1 3.8-3.9 7.4-7.8 8.1-8.5 0.7-0.8 1.8-1.4 2.3-1.4 0.5 0 0.9-0.5 0.9-1 0-0.6 3.2-4 7.1-7.8 4-3.7 9.7-9.2 12.8-12.3 3.1-3.1 6.6-6.7 7.8-8 1.2-1.3 29.7-29.9 63.5-63.6 33.7-33.6 62.5-62.4 63.9-64 1.5-1.5 7.3-7.3 12.9-12.8 5.7-5.5 11.6-12 13.2-14.5 2.1-3.3 2.8-5.7 2.8-9 0-2.5-0.9-6.3-1.9-8.5-1.2-2.5-9.7-11.7-22.7-24.7-11.5-11.4-25.6-25.5-31.4-31.3-5.8-5.8-10.8-10.5-11.3-10.5-0.4 0-2.1-1.4-3.7-3-1.7-1.7-3-3.3-3-3.8 0-0.4-12-12.7-26.7-27.4-14.8-14.7-27.4-26.8-28.1-26.8-0.6 0-1.2-0.6-1.2-1.3 0-0.6-1.5-2.7-3.3-4.5-1.7-1.8-11.1-11.2-20.7-20.9-9.6-9.7-18.4-18.6-19.6-19.7-1.1-1.2-6-6-11-10.7-4.9-4.7-10.3-10.1-12-12-1.7-1.9-4-4.2-5-5.1-1.1-0.9-4.2-4-6.9-6.7-2.8-2.8-5.5-5.1-6-5.1-0.6 0-2.2-1.3-3.8-3-1.5-1.6-2.7-3.3-2.7-3.8 0-0.4-3.1-3.7-6.8-7.5-3.7-3.7-7.3-6.7-8-6.7-0.7 0-1.2-1.5-1.3-3.8-0.1-2-0.1-4 0-4.5 0-0.4-0.4-0.7-0.9-0.7-0.6 0-0.8-0.5-0.5-1 0.3-0.6 0-1-0.5-1-0.6 0-1-0.9-1-2 0-1.8 0.7-2 15.5-2zm34.6 0h13.9l7.8 16.5 94.8 94.6c80.2 80 95.8 95 100.4 97.3 3 1.4 7.1 2.9 9 3.2 1.9 0.3 6 0.1 9-0.5 3-0.6 7.7-2.5 10.5-4.3 2.7-1.8 15.3-13.9 28-26.8 12.6-12.9 54.3-54.9 92.5-93.2 68.8-69.1 69.5-69.9 78-86.8h7.5c4.1 0 7.5 0.3 7.5 0.7 0 0.5-1 3.7-2.2 7.3-2.2 6.3-2.9 7.1-30.6 34.5-23.6 23.3-29.4 29.6-34.8 37.7-3.5 5.4-6.4 10.2-6.4 10.8 0 0.5-1.2 1.8-2.7 2.7-1.5 1-4.5 3.8-6.8 6.2-2.2 2.4-4.3 5.2-4.8 6.2-0.4 1.1-2.4 2.6-4.5 3.5-2.1 0.9-7.6 5.6-13.2 11.3-5.2 5.4-11.8 11.5-14.5 13.6-2.8 2.2-7.3 6.2-10 9.1-2.8 2.8-6.4 6.9-8.1 9-1.7 2.2-3.9 5.2-4.9 6.9-1 1.6-2.8 4.5-3.9 6.2-1.2 1.8-2.4 3.3-2.9 3.3-0.4 0-1.6 1.1-2.7 2.5-1.1 1.4-3 2.8-4.3 3.1-1.2 0.4-5.9 4.5-10.5 9.3-4.6 4.7-9.3 10.4-10.4 12.6-1.1 2.2-2.8 4.8-3.7 5.8-1.5 1.7-1.4 1.8 2.9 1.8 3.9 0 4.7-0.4 5.9-2.8 0.7-1.5 1-3.4 0.7-4.1-0.4-0.8 0.3-1.2 2.1-1.1 1.6 0.1 4-0.3 5.5-1 1.6-0.6 4.9-3.2 7.5-5.7 3.6-3.4 4.8-5.5 5-7.8 0.1-1.7 0.5-4.6 1-6.4 0.7-2.7 1.3-3.2 3.5-3.2 2.1 0 4.1-1.3 7.5-5 2.7-2.8 4.9-4.8 5-4.5 0.2 0.3 3.2-2.4 6.8-6 3.6-3.6 6.3-7 6-7.5-0.3-0.6-0.1-1 0.4-1 0.5 0 3.4-2.5 6.5-5.5 3.1-3 5.6-6.3 5.6-7.3 0-0.9 0.8-2.5 1.8-3.5 0.9-1 2.1-1.7 2.7-1.7 0.5 0 1.4-1 2-2.2 0.5-1.3 1.7-2.3 2.5-2.4 0.8 0 2.6-0.4 4-0.7 1.5-0.4 3.1-2 4-3.9 0.8-1.8 1.4-3.5 1.3-3.8-0.1-0.3 0.9-1.2 2.2-2 1.3-0.8 2.8-2.9 3.3-4.5 0.5-2.1 1.5-3.1 3-3.3 1.2-0.1 2.2-0.8 2.2-1.5 0-0.6 1.8-2.9 4-5 3.4-3.1 4.7-3.7 8.5-3.7 3.4 0 4.6-0.4 5.1-1.8 0.3-0.9 0.8-2.4 1-3.2 0.4-1.2 0.7-1.2 1.2-0.2 0.5 0.9 2.1 0.2 5.7-2.7 2.7-2.2 6.1-4.3 7.5-4.7 1.4-0.3 3.5-1.5 4.7-2.7 1.2-1.2 2-2.5 1.8-3-0.3-0.4 1.9-2.8 4.7-5.4 2.9-2.5 9.3-8.3 14.1-12.7 4.9-4.5 9.7-9 10.8-10.1 1-1.1 3.8-4.3 6.2-7 2.4-2.8 5-5.2 5.8-5.4 0.8-0.1 2.5-1.7 3.9-3.3 1.4-1.6 4.3-5 6.5-7.4 2.2-2.5 4.3-4.5 4.7-4.4 0.5 0 2.1-1.6 3.8-3.5 1.6-1.9 3-3.8 3.1-4.3 0-0.4 0.6-1.4 1.3-2.2 0.7-0.8 1.8-3.1 2.5-5 0.6-1.9 1.1-4.5 1.1-5.8 0-2.2 0.1-2.2 32-2.2l-3.5 6c-3 5.1-3.3 6.1-1.9 6.7 1.3 0.7 1.1 1.1-1.3 2.7-1.5 1-3.5 2.5-4.3 3.2-0.8 0.7-2.5 2.2-3.8 3.4-1.2 1.1-3.5 2.8-5.1 3.7-1.6 1-4 3.4-5.3 5.3-1.4 2.1-3.4 3.6-4.8 3.9-1.4 0.2-4.4 2.3-6.8 4.7-2.5 2.6-3.7 4.5-3 4.8 0.9 0.2 0.7 1-0.7 2.4-1.1 1.2-2.3 1.9-2.8 1.7-0.4-0.3-0.9 0.4-1.2 1.5-0.3 1.1-1.1 1.9-1.8 1.9-0.6-0.1-1.7-0.1-2.2-0.1-0.6 0.1-1.9 2-3 4.2-1.7 3.6-1.8 4.2-0.5 5 1.1 0.6 0.5 1.1-2.3 1.9-2.8 0.8-3.9 1.8-4.3 3.8-0.4 1.6-1.2 3.4-1.8 4.1-0.9 1.1-1.2 1.1-1.8 0-0.5-0.9-1.8-0.3-4.7 2.4-2.3 2.1-3.8 3.8-3.4 3.8 0.5 0-0.8 1.4-2.7 3.1-1.9 1.7-4.6 3.6-5.9 4.3-1.3 0.6-2.9 2-3.5 3.1-0.6 1.1-1.7 2.3-2.4 2.7-0.6 0.5-1.2 1.5-1.2 2.3 0 0.8-2.2 3.6-4.8 6.2-2.7 2.7-5.6 6.4-6.5 8.3-1 1.9-3.6 4.6-5.9 6-2.2 1.4-7.1 5.5-10.7 9.1-3.6 3.6-8.2 8.5-10.1 10.9-1.9 2.3-4 4.7-4.5 5.4-0.6 0.6-1.7 2.4-2.5 3.9-0.8 1.5-2.3 3-3.3 3.2-0.9 0.3-2.5 2.1-3.5 4-0.9 2-2 3.5-2.5 3.5-0.4 0-2.6 1.7-5 3.8-2.3 2.1-5.2 4.1-6.5 4.5-1.2 0.4-2.2 1.1-2.2 1.7 0 0.5-2.8 3.7-6.3 6.9-3.4 3.3-7.6 7.3-9.2 8.9-1.7 1.7-4.9 4.2-7.3 5.6-3.2 2-4.1 3.1-3.7 4.6 0.4 1.5-0.1 2.1-1.8 2.5-1.2 0.3-3.2 2-4.4 3.8-1.2 1.8-6 7.2-10.8 12.2-4.7 4.9-8.9 8.7-9.3 8.3-0.4-0.5-1.3-0.3-2 0.2-0.6 0.6-1 1.4-0.7 2 0.3 0.5-1.8 2.8-4.5 5-2.8 2.2-5 4.6-5 5.2-0.1 0.7-2.2 3.6-4.8 6.5-2.6 2.9-5.4 5.2-6.2 5.3-0.8 0-3.1 1.3-5 2.9-3.2 2.6-3.5 3.3-3.2 7.2 0.2 2.4 0.8 6.2 1.4 8.4 0.6 2.2 2.8 6.4 4.9 9.2 2.2 2.9 5.7 6.3 7.9 7.5 2.2 1.3 4.2 3 4.5 3.8 0.2 0.8 1.3 2.7 2.5 4.2 1.1 1.6 2.7 2.8 3.5 2.8 0.8 0 3.6 1.7 6.1 3.7 2.5 2.1 5.4 5.5 6.5 7.5 1 2.1 2.9 4.1 4.1 4.4 1.3 0.3 3.6 1.8 5.2 3.3 1.5 1.4 3.9 4.3 5.2 6.3 1.3 2.1 3.9 4.4 5.6 5.1 1.8 0.8 4.3 2.7 5.5 4.3 1.3 1.6 2.6 3.3 3.1 3.9 0.4 0.5 1.7 2.5 2.7 4.2 1.1 1.8 3.3 3.9 4.9 4.5 1.6 0.7 4.6 3.2 6.7 5.5 2.2 2.4 4.5 5.4 5.1 6.8 0.7 1.4 2.6 3.3 4.3 4.1 1.6 0.9 4.2 3.5 5.6 5.8 1.5 2.2 4.8 6.1 7.3 8.6 2.6 2.5 8 7.6 12 11.5 4 3.8 8.8 8.4 10.7 10.2 1.9 1.7 4.7 4.8 6.4 6.9 1.6 2.1 4.3 4.3 6 5 1.6 0.6 4.4 2.9 6.1 5 1.7 2.2 3.8 5.2 4.6 6.9 0.8 1.6 3.5 4.7 5.9 6.8 2.4 2.1 6.9 7 9.9 10.9 3.6 4.6 6.6 7.4 8.7 8.2 1.8 0.6 4.3 2.7 5.5 4.6 1.3 1.9 3.9 4.4 5.8 5.6 1.9 1.2 4.7 3.5 6.3 5.1 1.5 1.5 2.7 3.2 2.7 3.8-0.1 0.5 1.4 2.2 3.2 3.8 1.8 1.5 4.2 2.7 5.3 2.7 1.1 0 4.1 2.1 6.7 4.8 2.6 2.6 4.8 5.5 4.8 6.4 0 1 2.1 3.5 4.6 5.5 2.6 2.1 5.6 5.8 6.8 8.3 1.5 3.2 3.3 5.1 6.1 6.5 2.1 1.1 4.8 2.8 6 3.8 1.1 0.9 3.1 1.8 4.5 1.8 1.4 0.1 2.9 0 3.5-0.1 0.5-0.1 2.3-0.4 4-0.7 1.6-0.3 4.6-1.9 6.5-3.7 1.9-1.7 4.9-4.9 6.5-7.1 1.7-2.2 5.8-6.2 9-8.8 3.3-2.7 6.9-6.3 8.1-8 1.2-1.8 3.9-4.4 6-5.8 2.1-1.5 8.2-6.9 13.4-12.1 5.2-5.1 10.6-10.9 12-12.8 1.4-1.9 3.8-4.6 5.5-6 1.6-1.3 4.6-4 6.5-6 1.9-1.9 4.6-4.9 6-6.5 1.4-1.7 4.9-4.9 7.9-7 3-2.2 6.1-5.4 6.9-7 0.8-1.7 7.2-8.4 14.1-15 6.9-6.6 13.5-12.9 14.6-14 1.2-1.1 2.5-2.7 3.1-3.5 0.5-0.8 4-4.2 7.8-7.5 3.8-3.3 8.8-8 11-10.5 2.3-2.4 7.5-7.8 11.6-12 4.2-4.1 12.7-12.5 19-18.6 6.3-6 15.5-15.3 20.3-20.5 4.9-5.1 11-11.6 13.5-14.3 2.6-2.8 6.5-7.1 8.7-9.7 2.2-2.6 6.7-6.9 9.9-9.5 3.3-2.7 7.7-7.2 9.9-9.9 2.1-2.8 3.7-5.9 3.6-7-0.1-1.1 0.1-3.1 0.6-4.5 0.5-1.7 0.2-3.4-1.1-5.4-1.1-1.6-6.5-7.5-12.2-13-5.6-5.6-10.2-10.6-10.3-11.1 0-0.6-5.2-5.5-11.4-11-6.3-5.5-19.2-17.8-28.7-27.4-9.5-9.6-18.9-18.8-20.8-20.5-1.9-1.7-6.7-6.4-10.5-10.4-3.9-4.1-11-11.3-16-16-4.9-4.8-16.2-15.9-25-24.8-8.8-8.8-18.3-18-21-20.5-2.8-2.5-8.6-8.5-13-13.4-4.4-4.8-12.4-13.3-17.7-18.9-5.4-5.6-10-9.9-10.3-9.6-0.3 0.3-0.8-0.4-1.1-1.5-0.3-1.1-2.3-3-4.4-4.3-2.2-1.2-4-2.7-4-3.2 0-0.6-5.4-6.5-12-13.3-6.7-6.7-12.3-12.9-12.5-13.7-0.2-0.8-1.3-2.4-2.3-3.5-1-1.1-2.6-3.5-5.2-8.5h32l1.5 3.7c0.9 2.1 2.5 5.4 3.8 7.5 1.2 2 3.1 4.8 4.2 6.3 1.1 1.5 3.6 4.7 5.5 7.1 1.9 2.3 4.1 4.3 4.7 4.3 0.7 0.1 1.9 1.1 2.7 2.3 0.7 1.3 2.2 3.2 3.2 4.4 1.1 1.1 3.9 3.4 6.4 5.1 2.5 1.7 7 5.8 10.2 9 3.1 3.2 8.1 8.3 11.2 11.3 3.1 3 5.9 6.4 6.3 7.5 0.3 1.1 2 3.4 3.7 5.2 1.7 1.8 3.7 3.2 4.3 3.3 0.7 0 1.3 0.3 1.3 0.7 0 0.5 2.9 3.8 6.5 7.5 3.6 3.8 6.9 6.8 7.5 6.8 0.5 0 2.8 1.8 5 4 2.2 2.2 4 4.3 4 4.7 0.1 0.5 1.1 1.6 2.3 2.6 1.2 1 4.1 3.3 6.4 5 2.3 1.8 4.3 3.5 4.3 3.9 0 0.5 4 4.7 9 9.5 4.9 4.9 9 9.2 9 9.8 0 0.5 1.6 2.9 3.7 5.2 2.1 2.3 4.1 4.2 4.5 4.3 0.5 0 3.8 3.2 7.5 7.1 3.8 4 8.5 8.8 10.7 10.8 2.1 2 8.8 8.5 14.8 14.6 6.1 6 14.5 14.8 18.7 19.5 4.2 4.6 9.2 9.7 11.1 11.4 1.9 1.6 10.6 10.1 19.2 18.8 8.7 8.7 16.5 15.8 17.3 15.8 0.8 0 1.5 0.4 1.5 1 0 0.5 1.4 2.2 3 3.7 2.8 2.6 3 3.3 3 10.3 0 7-0.1 7.7-3 10.5-1.7 1.6-3 3.4-3 4 0.1 0.5-0.7 1.7-1.6 2.5-1 0.8-2.4 1.6-3.3 1.7-0.9 0.1-3.3 2.1-5.3 4.5-2.1 2.4-3.8 4.7-3.8 5.3 0 0.5-3 3.9-6.7 7.5-3.6 3.6-19.3 19.2-34.7 34.8-15.5 15.6-29.4 29.5-30.9 31-1.6 1.5-7 7-12 12.2-5.1 5.2-10.4 10.9-11.8 12.5-1.5 1.7-7.7 7.9-13.9 14-6.1 6-13.8 13.7-17 17-3.2 3.3-6.7 6.7-7.7 7.7-1 0.9-2.5 2.5-3.4 3.5-0.9 1-3.3 3.1-5.4 4.8-2.1 1.6-7.1 6.8-11.3 11.5-4.2 4.7-9.9 10.5-12.7 13-2.9 2.5-6.3 5.4-7.6 6.6-1.3 1.2-3.3 3.3-4.4 4.8-1.1 1.5-2.5 2.7-3 2.6-0.6 0-1.7 0.9-2.5 2.1-0.8 1.2-3.8 4.6-6.5 7.5-2.8 3-5.7 5.4-6.5 5.4-0.8 0-4.1 2.4-7.3 5.5-3.1 3-5.9 6.4-6.2 7.5-0.3 1.1-1.1 2-1.8 2-0.6 0-2.1 1.4-3.2 3-1.1 1.7-3.5 3.9-5.3 5-1.7 1.1-3.2 2.8-3.2 3.7 0 1-0.8 2.6-1.8 3.6-0.9 1-2.2 1.8-2.7 1.8-0.6-0.1-2 0.9-3.3 2.2-1.2 1.2-2.2 2.8-2.2 3.4 0 0.7-2.1 3.2-4.8 5.4-2.6 2.3-6.2 4.8-8 5.5-2.3 1-5 1.2-9.5 0.6-5.9-0.7-6.6-1-11.2-5.8-2.8-2.9-7.3-7.6-10.1-10.5-2.8-3-6.2-6.3-7.5-7.5-1.3-1.1-3.5-3.6-4.9-5.4-1.4-1.8-3.9-3.9-5.5-4.8-1.7-0.8-4.6-2.8-6.5-4.4-1.9-1.6-4.2-4.3-5-6.1-0.9-2-4-4.8-8-7.4-4.4-2.9-6.9-5.3-7.8-7.5-0.8-1.8-4.4-6.3-8-10-3.7-3.7-8.5-8.6-10.7-10.8-2.2-2.3-6.5-6.6-9.5-9.5-3-2.9-7.1-5.9-9-6.7-2.1-0.9-4.4-2.9-5.8-5.1-1.2-2-3-3.9-4-4.2-0.9-0.2-5.3-4.4-9.7-9.2-4.4-4.8-10.3-11-13-13.7-2.8-2.7-6.5-6.1-8.3-7.5-1.8-1.4-3.3-3.1-3.2-3.6 0-0.6-4.3-5.4-9.5-10.8-5.2-5.3-10.1-9.7-10.8-9.7-0.6 0-4.7-3.7-9-8.2-4.3-4.6-7.8-8.6-7.7-9.1 0-0.4-2.2-2.4-5-4.5-2.7-2-5.2-4.6-5.4-5.7-0.3-1.1-3.1-4.3-6.3-7.1-3.2-2.8-7.4-7.4-9.3-10.2-1.9-2.9-4.8-5.7-6.5-6.4-1.6-0.7-5.7-4-9-7.3-3.4-3.3-8.9-8.6-12.3-11.8-3.4-3.1-6.2-6-6.2-6.5 0-0.4-1.2-1.4-2.7-2.3-1.6-0.9-5-4.5-7.7-8-2.7-3.5-6.5-7.7-8.5-9.2-2-1.5-3.9-2.8-4.4-2.7-0.4 0-0.7-0.5-0.7-1 0-0.6-1-2.5-2.2-4.3-1.3-1.9-2.4-5.6-2.8-9.2-0.4-3.3-0.3-7.8 0.2-10 0.5-2.7 2.1-5.3 4.8-8 2.2-2.2 5-5.6 6.2-7.5 1.2-1.9 2.2-4.2 2.3-5 0-0.8 0.6-2.5 1.3-3.8 0.9-1.7 0.9-2.5-0.1-3.8-0.7-1-2.1-1.4-3.7-1.1-1.4 0.3-5 1.4-8 2.5-3 1.1-10.2 2.6-16 3.3-9.9 1.1-10.9 1.1-17-0.9-3.6-1.2-8.5-3.6-11-5.2-2.5-1.6-49.3-47.8-203.5-202l-2.7-7.5zm525.9 578.1c2.5 0.3 6.3 1.5 8.5 2.8 2.2 1.2 6 3.6 8.5 5.5 2.6 1.9 4.6 4.2 4.7 5.4 0.2 1.2 0.7 2.2 1.3 2.2 0.5 0 1.5 0.1 2.2 0.3 0.7 0.1 1.3 0.9 1.3 1.7 0 0.8 0.7 1.5 1.6 1.5 0.9 0 2.6 0.9 3.8 2 1.2 1.1 2.3 3.3 2.6 4.8 0.3 1.8 1.1 2.7 2.2 2.7 1 0 3.2 1.2 4.8 2.7 1.7 1.6 2.9 3.4 2.8 4.1-0.2 0.7 0.9 2 2.4 3 1.5 0.9 8.4 7.4 15.3 14.4 6.9 6.9 13.2 13.5 14.1 14.5 0.8 1 3.3 3.5 5.5 5.5 2.1 2 4.5 4.3 5.2 5 0.7 0.7 2.3 2.3 3.5 3.6 1.2 1.2 3.4 2.8 5 3.5 1.5 0.7 3.4 2.7 4.2 4.5 0.8 1.8 1.9 3.2 2.5 3.2 0.5 0 1.2 0.9 1.5 2 0.3 1.1 1 1.9 1.7 1.8 0.6-0.2 1.2 0.2 1.2 0.7 0.1 0.6 4.1 5.1 9 10 4.8 5 9.3 8.9 10 8.7 0.6-0.1 2.3 1 3.9 2.5 1.5 1.6 2.7 3.4 2.7 4.1 0 0.7 0.9 1.8 2 2.5 1.1 0.7 2 1.7 2 2.2-0.1 0.6 2.3 3.3 5.2 6.1 2.9 2.9 6.3 6.2 7.4 7.5 1.2 1.4 3.4 3.5 5 4.9 1.5 1.4 3.2 2.4 3.8 2.2 0.6-0.1 2.1 0.5 3.3 1.3 1.3 0.8 2.3 2.3 2.3 3.3 0 0.9 2.3 4.4 5.2 7.7 2.9 3.3 6.9 7.5 8.9 9.5 2 1.9 6 5.5 9 8 2.9 2.5 7.7 7 10.6 10 3 3 5.3 5.7 5.3 6 0 0.3 1.2 1.7 2.7 3.2 1.5 1.5 7.9 7.8 14.1 14 6.2 6.2 11.2 11.7 11.2 12.1 0 0.4 0.5 0.7 1.2 0.7 0.7 0.1 4 2.7 7.3 5.8 3.3 3.2 7.7 7.7 9.7 10 2.1 2.3 4.2 4 4.8 3.7 0.5-0.3 1.9 0.8 3 2.3 1.1 1.5 2 3.4 2 4.2-0.1 0.8 0.6 2.2 1.5 3 0.9 0.8 1.9 2.4 2.2 3.5 0.3 1.1 1.3 3.1 2.3 4.5 0.9 1.4 2 4.3 2.3 6.5 0.5 3.3 0.2 4.7-1.8 7.8-1.4 2-2.5 4.7-2.5 6 0 1.2-0.6 3.8-1.2 5.7-0.7 1.9-2.7 5.4-4.5 7.8-1.8 2.3-4.1 4.5-5.1 4.8-0.9 0.3-3.5 2.8-5.7 5.7-2.2 2.9-7.2 8.9-11 13.5-3.9 4.6-8.6 9.1-10.4 10-1.9 1-3.5 2.2-3.5 2.7 0 0.6-1.7 2.1-3.6 3.4-1.9 1.4-7.8 6.7-13 12-5.2 5.2-10.8 11.1-12.4 13.1-1.6 1.9-4.7 4.9-7 6.6-2.3 1.7-5.8 5.3-7.9 8-2.1 2.7-5.8 6.3-8.3 7.9-2.4 1.7-4.4 3.5-4.4 4 0 0.6-2.7 3.5-6.1 6.5-3.3 3-6.7 6.2-7.5 7-0.8 0.8-4.9 5.1-9 9.5-4.1 4.4-7.4 8.4-7.4 8.8 0 0.4-5.8 6.4-12.8 13.3-7 6.9-13.1 12.5-13.5 12.5-0.4-0.1-0.7 0.5-0.7 1.2 0 0.7-2 3.2-4.4 5.7-2.4 2.5-5.9 5.9-7.8 7.5-1.8 1.7-4.9 4.2-6.8 5.5-1.9 1.4-4.3 3.3-5.3 4.3-0.9 0.9-2.2 1.7-2.7 1.7-0.6 0-1 0.8-1 1.8 0 0.9-0.2 1.5-0.5 1.2-0.3-0.3-2.7 1.5-5.5 4-2.7 2.5-5 5.1-5 5.8 0 0.7-1.1 1.7-2.5 2.2-1.4 0.6-3.3 2.3-4.3 3.9-0.9 1.5-3.1 4.5-4.7 6.5-1.7 2-5.7 6.3-9 9.4-3.3 3.1-7.8 7.4-10 9.5-2.2 2.1-4.5 3.8-5.1 3.8-0.6-0.1-2.4 1.3-4 2.9-1.6 1.6-3.5 3-4.2 3-0.7 0-2.1 1.8-3.2 4-1.5 3.1-2.9 4.3-5.8 5.2-2 0.6-4 1.6-4.4 2.2-0.4 0.6-2 1.2-3.5 1.2-1.6 0.1-3.7 0.6-4.8 1.2-1.1 0.6-2.5 1.1-3 1.1-0.6 0.1-1.1 0.6-1.3 1.1-0.1 0.6-0.2 1.2-0.2 1.5 0 0.3-0.6 0.2-1.3-0.2-0.7-0.4-1.9-0.8-2.7-0.9-0.8-0.1-3.5-0.6-6-1.2-2.9-0.7-5.4-2.2-7-4.1-1.4-1.6-5.2-4.3-8.5-6.1-3.3-1.7-7.2-4.5-8.7-6.3-2.3-2.7-2.9-2.9-3.8-1.7-0.5 0.8-1 2.3-1 3.3 0 0.9 1 2.2 2.2 2.9 1.3 0.6 3.1 2.1 4.2 3.2 1 1.2 3.3 4.4 5.1 7.1 2 3.1 3.7 7.5 4.5 11.5 0.8 4.2 1.1 10.6 0.7 18-0.3 6.3-0.9 12.4-1.3 13.5-0.7 1.5-0.5 1.8 0.4 1.3 0.8-0.6 1.2 0.1 1.2 2.2 0 1.8 0.5 3 1.2 3 0.7 0 3.4-2.3 10.8-10h8.2c7.3 0 8.6 0.2 10.5 2.2 1.3 1.3 2 2.7 1.6 3.1-0.3 0.4 0.1 0.7 1 0.7 0.9 0 2.7 1.2 3.9 2.7 1.3 1.4 4.2 4.4 6.6 6.7 2.4 2.3 5.6 4.9 7 5.8 1.5 0.9 4.5 4 6.7 6.8 2.2 2.8 7.9 9.2 12.7 14.1 4.8 4.9 8.8 9.3 8.8 9.7-0.1 0.4 1.6 1.7 3.7 2.9 2.1 1.2 9 7.3 15.3 13.6 6.3 6.4 12.4 12.6 13.6 13.9 1.2 1.3 3.1 3.2 4.3 4.3 1.1 1.1 4.6 4.6 7.6 7.8 3 3.1 6.3 5.7 7.2 5.7 1.5 0 1.6 0.2 0.3 1-1.2 0.8-1 1 1 1 1.4 0 3.6 1.1 5 2.5 1.4 1.4 2.9 2.6 3.5 2.5 0.5 0 5.8 4.4 11.7 9.8 5.9 5.3 12 11.5 13.6 13.7 1.6 2.2 3.6 4.7 4.6 5.5 0.9 0.8 1.7 2.1 1.6 2.8 0 0.7 0.4 1.2 1 1.2 0.5 0 1 0.5 1 1 0 0.6 1.2 2.7 2.7 4.7 1.5 2.1 3.6 4.6 4.5 5.5 1 1 1.8 2.2 1.8 2.6-0.1 0.4 1.1 1.4 2.5 2.2 1.4 0.8 2.5 2.1 2.5 2.8 0 0.7 0.3 1.2 0.7 1.3 0.4 0 1.6 1.1 2.5 2.5 1 1.3 2.9 5.3 6.8 15.4h-34.5l-3.4-7.2c-2.8-5.9-5-8.8-11.9-15.3-4.7-4.4-16.5-16.1-26.1-26-9.7-9.9-20.3-20.4-23.6-23.5-3.3-3-10.5-10-16-15.6-5.5-5.5-13.6-14-18-18.8-4.4-4.8-8.9-9.5-9.9-10.4-1-0.9-4-3.4-6.5-5.6-2.5-2.1-6.4-5.7-8.7-8-2.2-2.2-6.8-6.7-10.2-9.8-5.6-5.2-6.6-5.7-9.7-5.3-2.3 0.3-5.4 2.1-8.8 5.1-2.9 2.5-6.1 5.3-7.2 6.3-1.1 0.9-2.9 2.9-4 4.3-1.1 1.4-4.7 4.4-8 6.6-3.3 2.3-7.1 5.8-8.5 7.9-1.4 2.1-3.2 4.6-4 5.7-0.8 1-2.4 2.6-3.4 3.5-1.1 0.9-2.8 2.5-3.8 3.6-1 1.1-3.8 4.2-6.1 6.9-2.3 2.6-5.7 5.5-7.5 6.2-1.8 0.8-4.4 3.3-5.9 5.7-1.5 2.3-3.9 5.5-5.3 7-1.4 1.5-3.1 2.8-3.8 2.7-0.7 0-2.5 1.5-4 3.3-1.6 1.8-3.2 4.1-3.6 5.2-0.4 1.1-2.9 3.7-5.7 5.8-2.7 2-5.4 3.7-5.9 3.7-0.6 0-1.6 1.7-2.4 3.8-0.8 2-3.3 5.4-5.5 7.5-2.3 2-4.7 3.7-5.4 3.7-0.7 0-1.9 0.9-2.7 2-0.8 1.1-2 2-2.5 2-0.6 0-1.7 1.4-2.5 3.1-0.8 1.8-3 4.5-4.8 6.1-1.8 1.5-3.7 2.8-4.2 2.8-0.6 0-3.7 2.8-7 6.3-3.3 3.4-6.9 7.1-7.9 8.2-1 1.1-2 2.5-2.1 3-0.1 0.6-0.7 1.7-1.4 2.5-0.7 0.8-1.6 2.3-2 3.3-0.5 1.5-2.3 1.7-31.6 1.7l0.6-2.2c0.3-1.3 1.3-3.9 2-5.8 0.8-1.9 1.4-3.6 1.4-3.7 0-0.2-1.1-0.3-2.5-0.3-1.7 0-4.4 1.9-14.5 12h-8.5c-5 0-8.5-0.4-8.5-1 0-0.5 0.4-1.2 1-1.5 0.5-0.3 0.8-1 0.6-1.7-0.3-0.7 0.6-2 2-2.8 1.3-0.8 2.4-2.3 2.4-3.2 0-1 0.4-1.8 1-1.8 0.5 0 0.9-0.9 0.7-2-0.2-1.5 21.7-23.9 82.5-84.7 58.2-58.3 83.1-83.9 84.2-86.5 0.9-2.1 1.6-5.6 1.6-7.8 0-2.2-0.7-4.6-1.5-5.5-0.8-0.8-1.5-2.3-1.5-3.2-0.1-1-50.6-52.3-113.8-115.5-62.5-62.6-114.3-113.8-115-113.8-0.7 0-1.2-0.4-1.2-1 0-0.5-3.5-4.6-7.8-9-4.2-4.4-8.3-8-9-8-0.7 0-1.2-0.3-1.2-0.7 0-0.4-1.2-1.4-2.7-2.1-1.6-0.7-4.8-1.1-7.3-1-2.5 0.1-5.9 0.9-7.5 1.8-1.7 0.8-6.2 4.5-10 8.1-3.9 3.6-12 11.7-18 17.9-6.1 6.2-13 13.1-15.5 15.4-2.4 2.3-6 5.9-8 8.1-1.9 2.1-5.5 5.7-8 8-2.5 2.2-6.3 6-8.5 8.3-2.2 2.4-5.6 5.8-7.5 7.5-1.9 1.8-7 7-11.5 11.6-4.4 4.6-12.6 13-18.2 18.5-5.5 5.6-13.1 12.9-16.7 16.4-3.6 3.4-6.6 6.3-6.6 6.5 0 0.1-7.3 7.7-16.3 16.8-8.9 9.1-17.9 17.9-20 19.5-2.1 1.6-3.8 3.3-3.8 3.7 0.1 0.4-1.6 2.2-3.6 4-2 1.8-5.5 5.1-7.8 7.5-2.2 2.3-9.3 9.5-15.8 16-6.5 6.4-12.5 12.5-13.5 13.4-0.9 1-6.7 6.9-12.8 13.3-6.1 6.3-11.6 11.5-12.3 11.5-0.6 0-1.1 0.6-1.1 1.3 0 0.7-3.4 4.3-7.5 8-5.2 4.7-7.5 7.4-7.5 9 0.1 1.2-0.6 2.9-1.5 3.7-0.9 0.8-1.6 3-1.6 4.8 0.1 1.8 0.5 3.4 1.1 3.7 0.5 0.3 1 1.8 1 3.3 0 2.3 14 16.6 84.3 86.9 46.3 46.3 84.4 84.8 84.6 85.5 0.2 0.7 1.4 3.6 2.7 6.3 1.3 2.8 2.4 5.4 2.4 5.8 0 0.4-4.2 0.6-9.2 0.5-8.8-0.3-9.3-0.4-10.5-2.8-0.7-1.4-2.6-3.8-4.1-5.5-1.6-1.6-4-4.6-5.4-6.5-1.4-1.9-36.5-37.5-78-79-62.6-62.7-75.9-76.4-78.1-81-2.5-4.9-2.7-6.5-2.7-16.5 0-7.9 0.5-12.4 1.7-16 1.5-4.2 4.8-8 20.3-23.8 10.2-10.4 20.1-19.6 22-20.5 2-1 3.6-2.5 3.7-3.7 0.2-1.1 7.1-8.5 15.4-16.5 8.3-8 16.3-15.8 17.7-17.5 1.5-1.6 40.5-40.8 86.7-87.1 59.6-59.7 85.3-84.8 88.5-86.4 3.4-1.7 6.7-2.4 14-2.7 7-0.4 11.2-0.1 16 1.2 3.6 0.9 7.9 2.3 9.7 3.1 1.8 0.8 3.7 1.4 4.3 1.4 0.5 0 1.8 1.3 2.7 2.8 0.9 1.5 2.7 3.6 3.8 4.7 1.1 1.1 3.8 3.4 5.8 5 2.1 1.7 3.7 3.6 3.7 4.3 0 0.7 1.2 2 2.7 3 1.5 0.9 3.9 2.9 5.3 4.3 1.4 1.4 3.6 4.2 5 6.2 1.4 2.1 3.3 3.9 4.2 4.2 1 0.3 1.8 1 1.8 1.5 0 0.6 0.5 1 1.2 1 0.7 0 3.4 2.2 6.1 4.8 2.6 2.6 4.7 5.4 4.7 6.2 0 0.8 0.9 2.3 2 3.3 1.1 0.9 2.5 1.7 3.2 1.7 0.7 0 1.8 0.6 2.5 1.3 0.6 0.7 1 1.8 0.7 2.5-0.2 0.7 0.5 1.3 1.8 1.5 1.5 0.1 2.9 1.5 4 3.7 1 1.9 2.6 3.6 3.5 3.7 1 0.2 2.3 0.1 3-0.2 0.9-0.3 1-1 0.3-2.5-0.6-1.1-1.7-2-2.5-2-0.8 0-1.7-0.7-2-1.5-0.3-0.8-1.3-1.5-2.3-1.5-1.3 0-1.4-0.2-0.4-0.7 1-0.6 0.1-1.8-3-4.3-2.4-1.9-5-4.2-5.8-5.2-0.8-0.9-2-1.7-2.5-1.7-0.6 0-1.8-1.6-2.8-3.6-0.9-1.9-2.2-3.5-2.7-3.5-0.6 0-1-0.4-1-1 0-0.5-2.5-3.5-5.5-6.5-3-3-5.5-5.8-5.5-6.2 0-0.4-0.8-1.5-1.8-2.3-0.9-0.8-2.8-2.2-4.2-3.1-1.4-0.9-4.4-3.4-6.7-5.5-2.4-2.1-4.3-4.4-4.3-5.1 0-0.7-0.7-1.3-1.5-1.3-0.8 0-2.5-2.1-3.7-4.7-1.1-2.6-4.4-7-7.2-9.8-2.8-2.7-5.5-4.8-5.9-4.7-0.4 0.1-1.1-0.6-1.6-1.5-0.4-1-1.4-4.4-2.2-7.5-1.4-5.5-1.3-5.8 0.8-8 1.2-1.3 2.2-2.7 2.2-3.3 0-0.5 0.8-1.7 1.8-2.6 1-0.9 2.1-3.4 2.5-5.5 0.5-2.6 2.6-5.9 6-9.9 2.9-3.3 6.5-7.1 8.1-8.5 1.5-1.4 4-3.8 5.5-5.4 1.5-1.6 5.6-5.8 9.2-9.3 3.6-3.4 7-6.9 7.7-7.5 0.7-0.7 2.7-2.8 4.5-4.6 1.8-1.9 4.2-4.1 5.3-5.1 1.1-0.9 3.2-2.5 4.7-3.4 1.5-0.9 3.2-2.7 3.6-3.9 0.5-1.3 4-5.6 7.8-9.6 3.8-4.1 7.4-8.3 8-9.5 0.6-1.2 2.3-2.7 3.8-3.4 1.4-0.7 2.6-1.7 2.6-2.3 0-0.5 1.4-1.8 3.2-2.9 1.8-1 4.5-3.7 6-6 1.5-2.2 3.5-4.1 4.3-4.1 0.8 0 2-0.8 2.7-1.9 0.7-1 2.9-2.8 4.8-3.9 1.9-1.1 4-3.3 4.7-4.8 0.7-1.6 2.7-4.3 4.5-6 1.8-1.7 4.7-3.8 6.5-4.7 1.8-0.9 4-3.1 5-4.9 0.9-1.8 2.8-4.3 4.2-5.7 1.4-1.3 4.3-3.4 6.3-4.7 2.1-1.3 4.7-3.8 5.7-5.6 1.1-1.8 3.4-4.7 5-6.5 1.7-1.8 4.4-4 6.1-4.8 1.6-0.8 4-3 5.2-4.8 1.3-1.9 4.2-5.1 6.5-7 2.4-2 4.8-3.7 5.5-3.7 0.7-0.1 3.4-2.4 6.1-5.3 2.6-2.8 4.7-5.5 4.7-5.9 0-0.4 0.5-1.3 1.2-2 0.7-0.7 2.5-1.9 4-2.5 1.5-0.7 3.9-3 5.2-5 1.3-2.1 3.7-5 5.2-6.6 1.6-1.5 4.9-4.8 7.4-7.3 2.5-2.4 5-4.4 5.7-4.4 0.7 0 1.3-0.7 1.3-1.5 0-0.8 3.3-5 7.3-9.2 4.1-4.3 11-11.6 15.3-16.3 4.3-4.6 10.1-10.1 12.9-12.2 2.7-2.1 6.3-4.1 8-4.4 1.6-0.3 4.1-1.9 5.4-3.5 1.4-1.6 3.3-2.9 4.3-2.9 1 0 1.8-0.4 1.8-1 0-0.5 1.4-1.1 3.2-1.2 1.8-0.2 5.3 0 7.8 0.3z"/><path class="f" d="m4.2 0h2.9c1.6 0 3.6 0.2 4.4 0.5 0.8 0.3 1.3 0.9 1 1.5-0.3 0.5 1.2 2.7 3.2 4.7 2.1 2.1 4.5 3.8 5.3 3.8 0.8 0 1.6 1 1.7 2.2 0.2 1.3 0.9 2.3 1.5 2.3 0.7 0 4.3 3.1 8.1 6.8 3.7 3.7 6.7 7 6.7 7.4 0 0.5 1.2 2.2 2.7 3.8 1.6 1.7 3.2 3 3.8 3 0.5 0 3.2 2.3 6 5.1 2.7 2.7 5.8 5.8 6.9 6.7 1 0.9 3.3 3.2 5 5.1 1.7 1.9 7.1 7.3 12 12 5 4.7 9.9 9.5 11 10.7 1.2 1.1 10 10 19.6 19.7 9.6 9.7 19 19.1 20.7 20.9 1.8 1.8 3.3 3.9 3.3 4.5 0 0.7 0.6 1.3 1.2 1.3 0.7 0 13.3 12.1 28.1 26.8 14.7 14.7 26.7 27 26.7 27.4 0 0.5 1.3 2.1 3 3.8 1.6 1.6 3.3 3 3.7 3 0.5 0 5.5 4.7 11.3 10.5 5.8 5.8 19.9 19.9 31.4 31.3 13 13 21.5 22.2 22.7 24.7 1 2.2 1.9 6 1.9 8.5 0 3.3-0.7 5.7-2.8 9-1.6 2.5-7.5 9-13.2 14.5-5.6 5.5-11.4 11.3-12.9 12.8-1.4 1.6-30.2 30.4-63.9 64-33.8 33.7-62.3 62.3-63.5 63.6-1.2 1.3-4.7 4.9-7.8 8-3.1 3.1-8.8 8.6-12.8 12.3-3.9 3.8-7.1 7.2-7.1 7.8 0 0.5-0.4 1-0.9 1-0.5 0-1.6 0.6-2.3 1.4-0.7 0.7-4.3 4.6-8.1 8.5-3.7 3.9-7.2 7.1-7.7 7.1-0.6 0-1 0.3-1 0.7 0 0.5-3.1 3.9-6.9 7.8-3.8 3.8-7.4 7.4-8.1 8-0.6 0.5-4.3 4.1-8.1 8-3.8 3.8-10.2 10.3-14.2 14.4-3.9 4-8.9 8.2-11 9.2-2 1-4.4 1.9-5.2 1.9-1.2 0-1.5-1.4-1.5-7 0-6.3 0.2-7.1 2.2-7.9 1.3-0.4 5-2.7 8.3-5 3.3-2.3 13.6-12.1 23-21.7 9.3-9.6 17.2-17.2 17.5-16.9 0.3 0.3 2.6-1.6 5.3-4.2 2.6-2.7 4.7-5.3 4.7-5.8 0-0.6 41.1-42.1 91.3-92.2 50.1-50.2 91.7-92.5 92.4-94 0.7-1.6 1.2-4.2 1.2-5.8 0-1.7-0.8-4.8-1.8-7-1.3-2.8-37-39.1-115.7-117.6-62.7-62.5-115.3-114.4-116.9-115.3-2.4-1.4-3.5-3.2-5.6-9.6zm294.7 880.1c2.5-0.1 5.8 0.4 7.3 1.1 1.5 0.7 2.8 1.6 2.8 2-0.1 0.4 0.5 0.8 1.2 0.8 0.7 0 4.7 3.6 9 8 4.2 4.4 7.7 8.4 7.7 9 0 0.5 0.6 1 1.3 1 0.7 0 52.4 51.2 115 113.7 63.2 63.3 113.7 114.5 113.7 115.5 0 1 0.7 2.4 1.5 3.3 0.9 0.8 1.5 3.2 1.5 5.5 0 2.2-0.7 5.6-1.5 7.7-1.1 2.6-26.9 29-87.3 89.5-47.1 47.2-85.8 86.2-85.9 86.7-0.2 0.6-2.1 2.2-4.3 3.6-2.2 1.3-4 3.1-4 4q0 1.5-3 1.5c-1.9 0-2.8-0.5-2.6-1.3 0.2-0.7 1.4-4.2 2.7-7.7 2.2-6.4 3-7.2 47.6-51.8 24.9-24.9 45.3-45.7 45.3-46.2 0-0.6 1.3-1.8 2.8-2.7 1.5-1 19-17.9 38.8-37.8 32.3-32.2 36.3-36.5 37.4-40.5 0.9-3.5 0.9-5.6 0-9-1.1-4.2-10.2-13.6-118.3-121.8-77.3-77.3-118.5-117.9-121.2-119.2-2.2-1.1-5.5-2-7.5-2-1.9 0-4.8 0.6-6.5 1.3-2.5 1.1-3.2 1.1-4.3-0.3-1.2-1.4-1.3-1.3-0.8 0.5 0.3 1.3-0.7 3.1-3 5.5-2.6 2.6-3.4 3-3.4 1.7 0-1-0.4-1.5-1-1.2-0.5 0.2-1-0.2-1-1 0-1.3-0.3-1.2-1.8 0.2-1 1-1.7 2.1-1.5 2.5 0.2 0.4 1.2 1.1 2.3 1.5 1.8 0.7 1.1 1.6-5.5 8.3-4.9 4.9-7.5 6.8-7.5 5.7 0-1-0.4-1.5-1-1.2-0.5 0.2-1-0.2-1-1 0-1.3-0.3-1.2-1.8 0.2-1.4 1.3-1.6 2.1-0.8 3 0.6 0.8 1.8 1.3 2.6 1.3 0.8 0-22.6 24.1-52.1 53.7-29.5 29.6-60.4 60.5-68.6 68.8-8.2 8.2-31.3 31.2-51.2 51-24.1 23.9-36.9 37.3-38.2 40-1 2.2-1.8 5.2-1.9 6.7 0 1.5 1 4.7 2.2 7 1.4 2.9 26.3 28.4 77 79 41.1 41.1 75.4 74.7 76.1 74.7 0.7 0 2.1 0.9 3.2 2 1.1 1.1 2.3 1.8 2.5 1.6 0.3-0.3 3.7 2.4 14.5 12.4l1 16.1-2.5-0.1c-1.9 0-21.8-19.3-93.7-91.2-76.2-76.2-91.2-91.7-91.2-94-0.1-1.5-0.5-3-1.1-3.2-0.5-0.3-1-2-1-3.8 0-1.8 0.7-3.9 1.5-4.7 0.9-0.9 1.6-2.6 1.6-3.8-0.1-1.6 2.2-4.3 7.4-9 4.2-3.7 7.5-7.3 7.5-8 0-0.7 0.5-1.2 1-1.2 0.6 0 6.1-5.2 12.3-11.6 6.2-6.3 12-12.3 13-13.2 0.9-1 7-7 13.5-13.5 6.4-6.5 13.5-13.7 15.8-16 2.2-2.3 5.7-5.7 7.7-7.5 2.1-1.8 3.7-3.6 3.7-4 0-0.4 1.6-2.1 3.7-3.7 2.1-1.6 11.1-10.4 20.1-19.5 8.9-9.1 16.2-16.7 16.2-16.8 0-0.1 3-3.1 6.7-6.5 3.6-3.4 13.8-13.6 22.7-22.7 8.9-9 18.1-18.3 20.5-20.5 2.5-2.2 5.4-5.2 6.5-6.5 1.2-1.4 4.8-5 8.1-8 3.2-3.1 7.5-7.3 9.5-9.5 1.9-2.2 5.5-5.8 8-8 2.4-2.2 6-5.8 8-7.9 1.9-2.2 10.1-10.4 18-18.2 8-7.9 15.7-15.1 17-16.1 1.4-1 3.4-2.3 4.5-2.9 1.1-0.7 4.1-1.2 6.5-1.3z"/><path class="a" d="m103.7 447c0.2 1.7 0.6 1.8 1.8 0.7 1.3-1 1.6-1 1.5 0 0 0.7-1.2 2.7-2.8 4.4-1.5 1.7-4.7 5-7.2 7.4-3.1 3.1-4.9 4.1-5.8 3.4q-1.2-0.9-1.7 0.6c-0.3 0.8-1.7 2.1-3.3 2.7-1.5 0.7-3.2 2-3.8 2.8-1 1.3-1.2 1.3-1.7-0.3-0.5-1.2 1-3.5 5.5-8.3 3.5-3.6 7.1-6.7 8-7 1-0.2 1.8-0.9 1.8-1.4 0-0.6 0.8-1.8 1.7-2.8 1-1 2.7-2.3 3.7-3 1.7-0.9 2-0.8 2.3 0.8zm-32 34.1c1.3-0.1 2.3 0.2 2.3 0.6-0.1 0.5-2.6 3.7-5.8 7.2-3.1 3.5-6.8 7.2-8.2 8.1-1.4 1-3.6 2.1-5 2.6-1.8 0.6-2.3 0.5-1.8-0.4 0.5-0.7 0.2-1.2-0.7-1.2-0.8 0-1.5-0.3-1.5-0.8-0.1-0.4 1.1-2.1 2.5-3.7 2-2.3 2.9-2.7 3.6-1.8 0.7 1 2.4-0.3 6.6-4.6 3.6-3.7 6.7-6 8-6zm323.7 457.9c0.3 0 1.8 0.6 3.3 1.4 1.6 0.7 3.7 2.6 4.8 4.1 1.1 1.5 2.6 3.3 3.4 3.9 0.8 0.6 3.7 3.4 6.5 6.1 2.8 2.8 5.9 5.4 6.8 5.8 1 0.4 1.7 1 1.6 1.4-0.1 0.5 0.1 1.8 0.5 3 0.4 1.3 1.4 2.3 2.2 2.3 0.8 0 1.7 1 2 2.2 0.3 1.4 1.6 2.6 3.3 3.1 1.5 0.5 3.3 1.4 4 2 0.7 0.7 1.3 2.5 1.3 7.2l-5.1-4.8c-2.7-2.6-5.6-4.7-6.3-4.7-0.6 0-2.4-1.2-3.8-2.7-1.4-1.5-3.1-3.9-3.9-5.3-0.7-1.4-2.1-3.1-3.2-3.8-1-0.6-1.8-1.9-1.8-2.7 0-0.9-0.6-1.3-1.5-1-0.8 0.3-1.5 0-1.5-0.5 0-0.6-0.6-1-1.3-1-0.6 0-3.3-2.6-5.8-5.8-2.5-3.1-4.9-6.7-5.3-8-0.4-1.2-0.5-2.2-0.2-2.2zm50.6 48.3c0.8 0.7 3 2.6 4.7 4.4 1.8 1.8 3.5 4.2 3.8 5.3 0.3 1.1 1 1.9 1.6 1.7 0.6-0.1 1.6 0.7 2.2 1.8 0.7 1.1 2 2.5 2.9 3.2 1 0.7 1.6 2 1.3 2.8-0.3 0.9-1.3 1.3-2.5 1-1.1-0.3-2-1-2-1.5 0-0.6-0.9-1.2-2-1.5-1.1-0.3-4.1-3.3-6.7-6.8-2.7-3.6-4.7-7.3-4.7-8.8-0.1-2.2 0.2-2.5 1.4-1.6zm77.5 79.7c1.9 2.5 3.5 4 3.5 3.5-0.1-0.6 0.8-0.1 1.9 1 1.1 1.1 1.9 2.4 1.8 3-0.1 0.5-0.5 1.2-0.8 1.5-0.3 0.3-1.8-1-3.3-2.8-1.4-1.7-2.9-3.1-3.4-3-0.4 0.1-1.9-0.5-3.5-1.5-1.5-0.9-2.8-2.6-2.9-3.6-0.2-1.2 0.4-2.1 1.5-2.3 1.1-0.2 3 1.2 5.2 4.2zm22.7 20.6c1.4 1.5 1.6 2.1 0.6 2.6-0.9 0.6-0.8 0.8 0.4 0.8 1 0 2 0.7 2.3 1.5 0.3 0.8 1.2 1.5 2 1.5 0.8 0 1.8 1.2 2.1 2.7 0.3 1.6 0.3 3 0 3.3-0.4 0.3-1.9-0.7-3.4-2.2-1.5-1.5-3.3-2.8-4-2.8-0.6 0-1.2-0.8-1.2-1.8 0-0.9-0.5-2.2-1.2-2.9q-1.3-1.2-0.4-2.9c0.9-1.5 1.1-1.5 2.8 0.2z"/><path class="b" d="m681.7 1254c0.5 0 17.4 16.6 37.8 37 20.3 20.4 36.4 37 35.7 37-0.6 0-17.6-16.4-37.7-36.5-20.1-20.1-36.5-36.7-36.5-37 0-0.3 0.3-0.5 0.7-0.5z"/><path class="e" d="m890.5 281c5.1 0 6.9 0.5 12.5 3.7 5.3 3.1 21.2 18.4 87.5 84.3 44.5 44.3 98.2 97.6 119.3 118.5 21 20.9 39.6 40 41.2 42.5 1.6 2.5 4.1 7.9 5.5 12 1.8 5.1 2.4 8.6 2.1 11-0.4 1.9-1.7 5.9-3.1 8.7-2.1 4.4-22.6 25.5-123.8 126.6-107.5 107.6-121.9 121.7-127.2 124.2-4.9 2.4-7.3 2.9-13 3-5.9 0-8.1-0.5-14-3.4-6.6-3.3-13.5-10-125.3-121.5-65-65-119.6-120.1-121.2-122.6-1.5-2.5-4.1-7.5-8.5-18.1l1.9-5.7c1-3.1 2.9-7.7 4.1-10.2 1.3-2.5 5.4-7.7 9.2-11.5 3.8-3.9 8.7-9.6 11.1-12.8 2.3-3.1 5-6.3 6.1-7 1-0.6 8.5-7.5 16.6-15.2 8.2-7.7 17.8-17 21.4-20.8 3.6-3.7 12.6-12.7 19.9-20 7.4-7.2 21.1-21.1 30.5-30.7 9.5-9.6 24.2-24.3 32.7-32.7 8.5-8.4 30-29.7 47.8-47.5 17.7-17.8 32.2-32.6 32.2-33.1 0-0.4 1.7-2.6 3.9-5 2.1-2.3 6.3-6.1 9.2-8.4 3-2.3 7.6-5.1 10.4-6.2 2.9-1.2 7.5-2 11-2.1z"/><path class="g" d="m591.5 588c3.9 0 6.9 0.5 8.5 1.6 1.4 0.9 57.8 56.8 125.3 124.3 77.1 76.9 123.6 124.1 124.9 126.6 1.3 2.6 2 5.7 1.9 8.7 0 2.7-0.8 6.3-1.7 8-0.9 1.8-56.3 58.1-123.2 125.2-67 67-123.7 123.1-126.2 124.7-3.5 2.3-5.6 2.9-9.8 2.9-3.2 0-6.7-0.8-9-1.9-2.1-1.2-55-53.4-127.4-125.8-89.4-89.4-123.9-124.6-124.5-126.8-0.4-1.7-0.7-5-0.7-7.5 0.1-2.5 0.8-5.9 1.7-7.5 0.9-1.7 57.1-58.4 124.9-126.1 67.8-67.8 124.6-123.9 126.3-124.8 1.7-0.8 5.6-1.5 9-1.6z"/><path class="c" d="m891.2 294c1.6 0 5.2 1.2 8 2.7 3.1 1.5 10.8 7.7 18.2 14.7 7.1 6.7 32.8 32.1 57.2 56.6 24.3 24.5 48.4 49.1 53.5 54.6 5.2 5.6 18.2 18.6 28.9 29 10.7 10.4 32.5 31.9 48.5 47.9 16 15.9 30.9 31.5 33.2 34.5 2.3 3 4.9 7.2 5.7 9.2 0.9 2.1 1.6 5.7 1.6 8 0 3.1-0.9 5.8-3.3 9.8-2.3 3.8-38 40.1-118.6 120.5-63.4 63.2-116.9 116-118.9 117.2-2.1 1.2-6 3-8.7 3.9-4.1 1.3-5.8 1.4-9.5 0.5-2.5-0.6-7.2-2.8-10.5-5-4.1-2.6-42-39.8-119-116.9-90.2-90.1-113.8-114.3-116.8-119.3-2-3.5-4-7.8-4.3-9.4-0.3-1.7-0.1-4.8 0.5-7 0.6-2.2 2.8-6.9 4.8-10.4 2.8-4.7 8-10.3 20-21.5 8.9-8.3 18.6-18 21.6-21.6 3-3.6 22.2-23.2 42.8-43.6 20.6-20.4 43.5-42.9 51-50 7.5-7.1 15.9-15.6 18.7-18.9 2.7-3.3 18.2-19.1 34.3-35.1 16.2-16.1 33.2-32.6 37.9-36.8 4.7-4.2 11.2-9 14.5-10.6 3.3-1.7 7.2-3 8.7-3z"/></svg>